<?xml version="1.0" encoding="UTF-8" standalone="no"?><!DOCTYPE svg PUBLIC "-//W3C//DTD SVG 1.1//EN" "http://www.w3.org/Graphics/SVG/1.1/DTD/svg11.dtd"><svg width="100%" height="100%" viewBox="0 0 174 56" version="1.1" xmlns="http://www.w3.org/2000/svg" xmlns:xlink="http://www.w3.org/1999/xlink" xml:space="preserve" style="fill-rule:evenodd;clip-rule:evenodd;stroke-linejoin:round;stroke-miterlimit:1.41421;"><path d="M97.588,0.293l74.263,55.262l-164.11,0l89.847,-55.262Z" style="fill:#376085;"/><path d="M116.368,2.441l55.723,53.128l-74.298,0l18.575,-53.128Z" style="fill:#5a7a9d;"/><path d="M44.992,27.076l63.174,28.488l-106.943,0l43.769,-28.488Z" style="fill:#8aa9c5;"/><g transform="matrix(1,0,0,1,-41.9817,-83.0028)"><path d="M158.736,123.75c-0.03,-0.06 -0.105,-0.105 -0.18,-0.105l-1.785,0c-0.54,0 -1.005,0.345 -1.185,0.84l-3.66,10.425l1.23,0c0.12,0 0.24,-0.09 0.27,-0.195l1.005,-2.895l5.73,0l1.005,2.895c0.03,0.105 0.135,0.195 0.27,0.195l1.23,0l-3.93,-11.16Zm-3.855,6.78l1.875,-5.4c0.045,-0.12 0.15,-0.195 0.27,-0.195l0.735,0l1.95,5.595l-4.83,0Z" style="fill:#fff;fill-rule:nonzero;"/><path d="M164.826,123.66l-1.14,0l0,11.085c0,0.09 0.075,0.165 0.165,0.165l1.14,0l0,-11.085c0,-0.09 -0.075,-0.165 -0.165,-0.165Z" style="fill:#fff;fill-rule:nonzero;"/><path d="M173.151,132.795l0,-3.27c0,-1.485 -0.99,-2.115 -2.19,-2.115l-3.57,0c-0.27,0 -0.48,0.21 -0.48,0.465l0,10.695l1.14,0c0.09,0 0.165,-0.075 0.165,-0.165l0,-3.975c0.18,0.24 0.555,0.48 1.02,0.48l1.725,0c1.2,0 2.19,-0.855 2.19,-2.115Zm-1.305,-0.015c0,0.495 -0.405,0.885 -0.885,0.885l-2.025,0c-0.39,-0.045 -0.69,-0.375 -0.72,-0.765l0,-4.095c0,-0.09 0.075,-0.165 0.165,-0.165l2.58,0c0.48,0 0.885,0.195 0.885,0.885l0,3.255Z" style="fill:#fff;fill-rule:nonzero;"/><path d="M176.136,127.41l-1.14,0l0,7.335c0,0.09 0.075,0.165 0.165,0.165l1.14,0l0,-7.35c0,-0.09 -0.075,-0.15 -0.165,-0.15Zm0,-3.36l-1.14,0l0,1.23c0,0.09 0.075,0.165 0.165,0.165l1.14,0l0,-1.23c0,-0.09 -0.075,-0.165 -0.165,-0.165Z" style="fill:#fff;fill-rule:nonzero;"/><path d="M182.376,127.41l-3.21,0c-0.54,0 -0.975,0.435 -0.975,0.975l0,6.525l1.14,0c0.09,0 0.165,-0.075 0.165,-0.165l0,-5.94c0,-0.09 0.075,-0.165 0.165,-0.165l2.715,0c0.495,0 0.885,0.405 0.885,0.885l0,5.22c0,0.09 0.075,0.165 0.165,0.165l1.14,0l0,-5.31c0,-1.215 -0.975,-2.19 -2.19,-2.19Z" style="fill:#fff;fill-rule:nonzero;"/><path d="M188.601,134.91l3.885,0l0,-1.08c0,-0.09 -0.075,-0.165 -0.165,-0.165l-3.72,0c-0.495,0 -0.885,-0.39 -0.885,-0.885l0,-1.335c0.135,0.18 0.345,0.285 0.585,0.285l4.11,0c0.36,0 0.39,-0.21 0.39,-0.465l0,-1.725c0,-1.395 -0.975,-2.13 -2.19,-2.13l-2.01,0c-1.215,0 -2.19,0.735 -2.19,2.13l0,3.18c0,1.215 0.975,2.19 2.19,2.19Zm2.055,-6.27c0.585,0 0.87,0.285 0.87,0.885l0,0.81c0,0.09 -0.075,0.165 -0.165,0.165l-3.495,0c-0.09,-0.015 -0.15,-0.075 -0.15,-0.165l0,-0.81c0,-0.6 0.39,-0.885 0.885,-0.885l2.055,0Z" style="fill:#fff;fill-rule:nonzero;"/></g></svg>