<?xml version="1.0" encoding="UTF-8" standalone="no"?><!DOCTYPE svg PUBLIC "-//W3C//DTD SVG 1.1//EN" "http://www.w3.org/Graphics/SVG/1.1/DTD/svg11.dtd"><svg width="141px" height="141px" version="1.1" xmlns="http://www.w3.org/2000/svg" xmlns:xlink="http://www.w3.org/1999/xlink" xml:space="preserve" style="fill-rule:evenodd;clip-rule:evenodd;stroke-linejoin:round;stroke-miterlimit:1.41421;"><g transform="matrix(1,0,0,1,-79.609,-311.899)"><path d="M147.555,325.58L147.555,311.899C113.133,316.958 85.776,343.719 79.862,377.856L93.631,377.856C99.225,351.205 120.614,330.367 147.555,325.58Z" style="fill:rgb(144,142,143);fill-rule:nonzero;"/><path d="M147.555,338.005L147.555,325.58C120.614,330.366 99.225,351.205 93.631,377.856L106.143,377.856C111.318,357.949 127.359,342.429 147.555,338.005Z" style="fill:rgb(188,187,187);fill-rule:nonzero;"/><path d="M186.395,372.292L176.188,382.522C176.487,383.103 176.829,383.644 177.078,384.268C178.018,386.62 178.489,389.193 178.489,391.97L178.489,392.153C178.489,394.995 178.017,397.563 177.078,399.856C176.143,402.159 174.843,404.147 173.184,405.838C171.52,407.534 169.51,408.828 167.16,409.732C164.799,410.638 162.199,411.094 159.36,411.094L148.58,411.094L148.58,410.192L135.111,423.694L159.36,423.694C164.315,423.694 168.859,422.876 173.002,421.247C177.139,419.612 180.706,417.383 183.693,414.533C186.688,411.697 188.996,408.349 190.628,404.475C192.26,400.61 193.076,396.442 193.076,391.969L193.076,391.793C193.076,387.321 192.26,383.167 190.628,379.326C189.533,376.751 188.103,374.42 186.394,372.291L186.395,372.292Z" style="fill:rgb(247,141,10);fill-rule:nonzero;"/><path d="M148.581,372.85L159.361,372.85C162.198,372.85 164.799,373.317 167.161,374.255C169.511,375.192 171.521,376.508 173.185,378.195C174.402,379.437 175.36,380.923 176.189,382.523L186.396,372.293C185.56,371.253 184.679,370.247 183.695,369.314C180.708,366.479 177.141,364.26 173.004,362.653C168.862,361.054 164.318,360.253 159.362,360.253L134.622,360.253L134.622,423.697L135.113,423.697L148.582,410.195L148.582,372.852L148.581,372.85Z" style="fill:rgb(249,175,84);fill-rule:nonzero;"/><path d="M173.772,326.093L173.772,338.639C184.946,341.661 194.687,348.13 201.839,356.812L210.491,348.138C201.145,337.188 188.345,329.273 173.772,326.093Z" style="fill:rgb(188,187,187);fill-rule:nonzero;"/><path d="M173.772,312.311L173.772,326.092C188.345,329.272 201.144,337.187 210.491,348.137L220.048,338.556C208.26,325.118 192.103,315.607 173.772,312.31L173.772,312.311ZM93.326,404.07L79.609,404.07C82.56,423.314 92.332,440.289 106.352,452.524L115.903,442.949C104.378,433.157 96.196,419.547 93.326,404.07Z" style="fill:rgb(247,141,10);fill-rule:nonzero;"/><path d="M105.778,404.07L93.326,404.07C96.197,419.547 104.379,433.157 115.903,442.949L124.561,434.271C115.302,426.678 108.546,416.143 105.778,404.07Z" style="fill:rgb(188,187,187);fill-rule:nonzero;"/></g></svg>