<?xml version="1.0" encoding="UTF-8" standalone="no"?><!DOCTYPE svg PUBLIC "-//W3C//DTD SVG 1.1//EN" "http://www.w3.org/Graphics/SVG/1.1/DTD/svg11.dtd"><svg width="293px" height="23px" version="1.1" xmlns="http://www.w3.org/2000/svg" xmlns:xlink="http://www.w3.org/1999/xlink" xml:space="preserve" style="fill-rule:evenodd;clip-rule:evenodd;stroke-linejoin:round;stroke-miterlimit:1.41421;"><g transform="matrix(1,0,0,1,-231.609,-382.399)"><g transform="matrix(1,0,0,1,-1,-3)"><path d="M239.786,408.345C237.288,408.345 234.611,408.104 233.377,407.893C232.805,407.803 232.504,407.532 232.504,406.84L232.504,386.95C232.504,386.258 232.805,385.987 233.377,385.897C234.611,385.687 237.289,385.446 239.786,385.446C245.774,385.446 249.385,388.606 249.385,394.955L249.385,398.836C249.384,405.185 245.773,408.345 239.786,408.345ZM244.239,394.955C244.239,390.893 242.493,389.809 239.785,389.809C239.033,389.809 238.07,389.839 237.649,389.869L237.649,403.921C238.07,403.951 239.033,403.981 239.785,403.981C242.493,403.981 244.239,402.898 244.239,398.835L244.239,394.955ZM266.085,407.954C265.032,408.104 263.497,408.345 260.248,408.345C256.366,408.345 252.936,407.352 252.936,401.875L252.936,391.885C252.936,386.408 256.396,385.446 260.278,385.446C263.528,385.446 265.032,385.687 266.086,385.837C266.507,385.897 266.688,386.047 266.688,386.439L266.688,389.237C266.688,389.568 266.417,389.839 266.086,389.839L259.978,389.839C258.564,389.839 258.052,390.32 258.052,391.885L258.052,394.623L265.845,394.623C266.176,394.623 266.447,394.894 266.447,395.225L266.447,398.083C266.447,398.414 266.176,398.685 265.845,398.685L258.052,398.685L258.052,401.874C258.052,403.439 258.564,403.92 259.978,403.92L266.086,403.92C266.417,403.92 266.688,404.191 266.688,404.522L266.688,407.32C266.688,407.712 266.507,407.893 266.085,407.954ZM278.002,400.25C277.28,400.25 276.317,400.189 275.564,400.16L275.564,407.472C275.564,407.803 275.293,408.074 274.962,408.074L271.08,408.074C270.749,408.074 270.478,407.833 270.478,407.502L270.478,387.281C270.478,386.258 270.899,385.987 271.832,385.837C273.367,385.596 275.774,385.446 277.94,385.446C282.483,385.446 286.967,387.041 286.967,392.698L286.967,392.969C286.969,398.595 282.485,400.25 278.002,400.25ZM281.854,392.698C281.854,390.561 280.53,389.719 278.002,389.719C277.581,389.719 275.926,389.779 275.564,389.809L275.564,395.947C275.895,395.977 277.67,396.007 278.002,396.007C280.68,396.007 281.854,395.014 281.854,392.968L281.854,392.698ZM303.128,407.954C302.074,408.104 300.54,408.345 297.291,408.345C293.409,408.345 289.979,407.352 289.979,401.875L289.979,391.885C289.979,386.408 293.439,385.446 297.321,385.446C300.571,385.446 302.075,385.687 303.129,385.837C303.55,385.897 303.731,386.047 303.731,386.439L303.731,389.237C303.731,389.568 303.46,389.839 303.129,389.839L297.021,389.839C295.607,389.839 295.095,390.32 295.095,391.885L295.095,394.623L302.888,394.623C303.22,394.623 303.491,394.894 303.491,395.225L303.491,398.083C303.491,398.414 303.22,398.685 302.888,398.685L295.095,398.685L295.095,401.874C295.095,403.439 295.607,403.92 297.021,403.92L303.129,403.92C303.46,403.92 303.731,404.191 303.731,404.522L303.731,407.32C303.729,407.712 303.549,407.893 303.128,407.954ZM324.071,408.074L321.123,408.074C320.49,408.074 320.039,407.954 319.559,407.141L312.698,395.285C312.578,395.105 312.517,395.044 312.427,395.044C312.336,395.044 312.277,395.105 312.277,395.285L312.277,407.472C312.277,407.803 312.006,408.074 311.674,408.074L308.123,408.074C307.793,408.074 307.521,407.803 307.521,407.472L307.521,386.86C307.521,386.228 308.033,385.717 308.665,385.717L311.705,385.717C312.307,385.717 312.607,386.018 312.969,386.65L320.1,399.047C320.22,399.228 320.25,399.288 320.34,399.288C320.401,399.288 320.49,399.227 320.49,399.017L320.49,386.289C320.49,385.958 320.761,385.717 321.093,385.717L324.643,385.717C324.975,385.717 325.246,385.958 325.246,386.289L325.246,406.931C325.245,407.562 324.703,408.074 324.071,408.074ZM336.741,408.345C334.243,408.345 331.565,408.104 330.332,407.893C329.76,407.803 329.459,407.532 329.459,406.84L329.459,386.95C329.459,386.258 329.76,385.987 330.332,385.897C331.565,385.687 334.243,385.446 336.741,385.446C342.728,385.446 346.34,388.606 346.34,394.955L346.34,398.836C346.34,405.185 342.729,408.345 336.741,408.345ZM341.194,394.955C341.194,390.893 339.449,389.809 336.741,389.809C335.988,389.809 335.025,389.839 334.604,389.869L334.604,403.921C335.025,403.951 335.988,403.981 336.741,403.981C339.449,403.981 341.194,402.898 341.194,398.835L341.194,394.955ZM363.04,407.954C361.987,408.104 360.453,408.345 357.203,408.345C353.321,408.345 349.891,407.352 349.891,401.875L349.891,391.885C349.891,386.408 353.352,385.446 357.234,385.446C360.483,385.446 361.988,385.687 363.041,385.837C363.463,385.897 363.644,386.047 363.644,386.439L363.644,389.237C363.644,389.568 363.373,389.839 363.041,389.839L356.934,389.839C355.519,389.839 355.008,390.32 355.008,391.885L355.008,394.623L362.801,394.623C363.132,394.623 363.403,394.894 363.403,395.225L363.403,398.083C363.403,398.414 363.132,398.685 362.801,398.685L355.008,398.685L355.008,401.874C355.008,403.439 355.519,403.92 356.934,403.92L363.041,403.92C363.372,403.92 363.644,404.191 363.644,404.522L363.644,407.32C363.643,407.712 363.462,407.893 363.04,407.954ZM383.984,408.074L381.035,408.074C380.403,408.074 379.952,407.954 379.471,407.141L372.611,395.285C372.49,395.105 372.43,395.044 372.34,395.044C372.25,395.044 372.19,395.105 372.19,395.285L372.19,407.472C372.19,407.803 371.919,408.074 371.588,408.074L368.037,408.074C367.706,408.074 367.435,407.803 367.435,407.472L367.435,386.86C367.435,386.228 367.947,385.717 368.579,385.717L371.618,385.717C372.22,385.717 372.52,386.018 372.882,386.65L380.014,399.047C380.134,399.228 380.164,399.288 380.254,399.288C380.315,399.288 380.404,399.227 380.404,399.017L380.404,386.289C380.404,385.958 380.675,385.717 381.006,385.717L384.557,385.717C384.888,385.717 385.159,385.958 385.159,386.289L385.159,406.931C385.157,407.562 384.616,408.074 383.984,408.074ZM402.25,407.833C401.618,408.043 399.872,408.345 397.767,408.345C393.193,408.345 388.86,405.938 388.86,398.776L388.86,394.984C388.86,387.822 393.193,385.445 397.767,385.445C399.872,385.445 401.619,385.746 402.25,385.957C402.671,386.077 402.911,386.198 402.911,386.619L402.911,389.538C402.911,389.899 402.731,390.14 402.34,390.14C402.31,390.14 402.279,390.14 402.25,390.14C401.106,390.05 399.451,389.899 397.796,389.899C395.72,389.899 394.066,390.982 394.066,394.984L394.066,398.776C394.066,402.778 395.72,403.861 397.796,403.861C399.451,403.861 401.107,403.711 402.25,403.621C402.279,403.621 402.31,403.621 402.34,403.621C402.732,403.621 402.911,403.861 402.911,404.223L402.911,407.142C402.911,407.562 402.671,407.712 402.25,407.833ZM422.952,386.378L418.408,396.79C417.806,398.174 417.175,398.806 416.452,399.107L416.452,407.472C416.452,407.803 416.181,408.074 415.85,408.074L411.909,408.074C411.578,408.074 411.306,407.803 411.306,407.472L411.306,399.107C410.584,398.806 409.922,398.174 409.321,396.79L404.777,386.378C404.747,386.318 404.747,386.228 404.747,386.168C404.747,385.927 404.928,385.717 405.228,385.717L409.561,385.717C409.862,385.717 410.073,385.958 410.163,386.228L413.413,394.713C413.563,395.105 413.654,395.165 413.864,395.165C414.075,395.165 414.166,395.105 414.316,394.713L417.565,386.228C417.656,385.957 417.866,385.717 418.168,385.717L422.501,385.717C422.802,385.717 422.982,385.927 422.982,386.168C422.982,386.228 422.982,386.318 422.952,386.378ZM431.077,400.671L425.24,400.671C424.909,400.671 424.638,400.461 424.638,400.129L424.638,397.722C424.638,397.391 424.909,397.15 425.24,397.15L431.077,397.15C431.408,397.15 431.68,397.391 431.68,397.722L431.68,400.129C431.68,400.461 431.408,400.671 431.077,400.671Z" style="fill:rgb(144,142,143);fill-rule:nonzero;"/></g><g transform="matrix(1,0,0,1,270.545,284.737)"><path d="M176.572,98.799C176.944,98.799 177.13,98.974 177.13,99.326L177.13,102.054C177.13,102.405 176.944,102.581 176.572,102.581L171.55,102.581L171.55,119.972C171.55,120.323 171.374,120.499 171.023,120.499L167.272,120.499C166.921,120.499 166.745,120.323 166.745,119.972L166.745,102.581L161.723,102.581C161.351,102.581 161.165,102.405 161.165,102.054L161.165,99.326C161.165,98.974 161.351,98.799 161.723,98.799L176.572,98.799Z" style="fill:rgb(61,89,139);fill-rule:nonzero;"/><path d="M192.289,120.499C191.979,120.499 191.736,120.442 191.56,120.328C191.385,120.215 191.245,120.044 191.142,119.817L187.732,112.687L187.453,112.687C187.06,112.687 186.616,112.682 186.12,112.671C185.624,112.661 185.149,112.635 184.694,112.594L184.694,119.972C184.694,120.323 184.518,120.499 184.167,120.499L180.416,120.499C180.065,120.499 179.889,120.323 179.889,119.972L179.889,100.845C179.889,100.307 179.972,99.904 180.137,99.636C180.302,99.367 180.602,99.181 181.036,99.078C181.925,98.85 182.937,98.685 184.074,98.582C185.211,98.478 186.337,98.427 187.453,98.427C188.879,98.427 190.083,98.577 191.064,98.876C192.046,99.176 192.842,99.615 193.451,100.194C194.061,100.772 194.5,101.475 194.769,102.302C195.038,103.128 195.172,104.079 195.172,105.154L195.172,105.96C195.172,107.386 194.929,108.595 194.443,109.587C193.958,110.579 193.157,111.343 192.041,111.881L196.226,119.941C196.329,120.147 196.334,120.292 196.241,120.375C196.148,120.457 196.04,120.499 195.916,120.499L192.289,120.499ZM187.081,108.905C188.445,108.905 189.375,108.667 189.871,108.192C190.367,107.716 190.615,106.952 190.615,105.898L190.615,105.216C190.615,104.162 190.367,103.397 189.871,102.922C189.375,102.446 188.445,102.209 187.081,102.209C186.668,102.209 186.254,102.229 185.841,102.271C185.428,102.312 185.045,102.384 184.694,102.488L184.694,108.812C185.107,108.853 185.521,108.879 185.934,108.889C186.347,108.9 186.73,108.905 187.081,108.905Z" style="fill:rgb(61,89,139);fill-rule:nonzero;"/><path d="M209.99,98.799C210.445,98.799 210.724,99.005 210.827,99.419L216.438,119.879C216.479,120.044 216.469,120.189 216.407,120.313C216.345,120.437 216.221,120.499 216.035,120.499L212.253,120.499C211.902,120.499 211.695,120.354 211.633,120.065L210.703,116.314L203.945,116.314L203.015,120.065C202.953,120.354 202.746,120.499 202.395,120.499L198.613,120.499C198.427,120.499 198.303,120.437 198.241,120.313C198.179,120.189 198.169,120.044 198.21,119.879L203.821,99.419C203.924,99.005 204.203,98.799 204.658,98.799L209.99,98.799ZM204.875,112.532L209.773,112.532L207.324,102.581L204.875,112.532Z" style="fill:rgb(61,89,139);fill-rule:nonzero;"/><path d="M228.776,117.089C229.561,117.089 230.285,117.073 230.946,117.042C231.607,117.011 232.289,116.944 232.992,116.841C233.302,116.82 233.457,116.965 233.457,117.275L233.457,119.6C233.457,119.868 233.292,120.054 232.961,120.158C232.258,120.385 231.432,120.561 230.481,120.685C229.53,120.809 228.631,120.871 227.784,120.871C226.11,120.871 224.694,120.633 223.537,120.158C222.38,119.682 221.439,118.995 220.716,118.096C219.993,117.197 219.466,116.097 219.135,114.795C218.804,113.493 218.639,112.015 218.639,110.362L218.639,108.936C218.639,107.282 218.799,105.805 219.119,104.503C219.44,103.201 219.956,102.1 220.669,101.201C221.382,100.302 222.318,99.615 223.475,99.14C224.632,98.664 226.048,98.427 227.722,98.427C228.59,98.427 229.468,98.504 230.357,98.659C231.246,98.814 232.021,99.005 232.682,99.233C232.868,99.295 232.992,99.367 233.054,99.45C233.116,99.532 233.147,99.646 233.147,99.791L233.147,102.023C233.147,102.333 232.992,102.477 232.682,102.457C232.103,102.374 231.473,102.312 230.791,102.271C230.109,102.229 229.417,102.209 228.714,102.209C227.722,102.209 226.89,102.343 226.218,102.612C225.547,102.88 225.004,103.304 224.591,103.883C224.178,104.461 223.883,105.19 223.707,106.068C223.532,106.947 223.444,107.985 223.444,109.184L223.444,110.145C223.444,111.343 223.537,112.382 223.723,113.26C223.909,114.139 224.214,114.862 224.637,115.43C225.061,115.999 225.614,116.417 226.296,116.686C226.978,116.954 227.805,117.089 228.776,117.089Z" style="fill:rgb(61,89,139);fill-rule:nonzero;"/><path d="M252.615,98.799C252.78,98.799 252.894,98.861 252.956,98.985C253.018,99.109 252.997,99.243 252.894,99.388L246.26,109.246L253.762,119.941C253.845,120.044 253.86,120.163 253.808,120.297C253.757,120.432 253.638,120.499 253.452,120.499L249.081,120.499C248.854,120.499 248.678,120.468 248.554,120.406C248.43,120.344 248.316,120.23 248.213,120.065L241.858,110.393L241.858,119.972C241.858,120.323 241.682,120.499 241.331,120.499L237.58,120.499C237.229,120.499 237.053,120.323 237.053,119.972L237.053,99.357C237.053,98.985 237.229,98.799 237.58,98.799L241.331,98.799C241.682,98.799 241.858,98.985 241.858,99.357L241.858,108.099L247.779,99.171C247.965,98.923 248.203,98.799 248.492,98.799L252.615,98.799Z" style="fill:rgb(61,89,139);fill-rule:nonzero;"/></g></g></svg>