<?xml version="1.0" encoding="UTF-8" standalone="no"?><!DOCTYPE svg PUBLIC "-//W3C//DTD SVG 1.1//EN" "http://www.w3.org/Graphics/SVG/1.1/DTD/svg11.dtd"><svg width="100%" height="100%" viewBox="0 0 700 800" version="1.1" xmlns="http://www.w3.org/2000/svg" xmlns:xlink="http://www.w3.org/1999/xlink" xml:space="preserve" style="fill-rule:evenodd;clip-rule:evenodd;stroke-linejoin:round;"><g id="g3879" transform="matrix(3.16076,0,0,3.16076,1267.76,2723.77)"><g id="path3773" transform="matrix(1,0,0,1,1.5819,0)"><path d="M-276.04,-740.269C-264.191,-744.818 -256.327,-756.261 -256.327,-768.953C-256.327,-785.808 -270.197,-799.678 -287.052,-799.678C-303.907,-799.678 -317.777,-785.808 -317.777,-768.953C-317.777,-756.261 -309.913,-744.818 -298.064,-740.269L-318.76,-686.341C-352.888,-699.44 -375.54,-732.397 -375.54,-768.952C-375.54,-817.495 -335.595,-857.44 -287.052,-857.44C-238.509,-857.44 -198.564,-817.495 -198.564,-768.952C-198.564,-732.397 -221.216,-699.44 -255.344,-686.341L-276.04,-740.269Z" style="fill:rgb(63,166,82);fill-rule:nonzero;stroke:rgb(33,85,42);stroke-width:7.37px;"/></g><g transform="matrix(0.990412,0,0,1.00968,-397.299,-650.141)"><g id="text7890.-3.-1"><path d="M10.677,0.429C8.011,0.429 5.882,-0.455 4.291,-2.223C2.701,-3.991 1.905,-6.357 1.905,-9.321C1.905,-12.319 2.704,-14.691 4.3,-16.436C5.896,-18.181 8.062,-19.054 10.797,-19.054C13.532,-19.054 15.698,-18.181 17.294,-16.436C18.891,-14.691 19.689,-12.331 19.689,-9.355C19.689,-6.311 18.888,-3.919 17.286,-2.18C15.684,-0.441 13.481,0.429 10.677,0.429ZM10.729,-2.111C14.31,-2.111 16.101,-4.526 16.101,-9.355C16.101,-14.127 14.333,-16.513 10.797,-16.513C7.273,-16.513 5.51,-14.116 5.51,-9.321C5.51,-4.515 7.25,-2.111 10.729,-2.111Z" style="fill-rule:nonzero;"/><path d="M24.976,6.78L24.976,-18.642L28.358,-18.642L28.358,-15.14C29.742,-17.749 31.819,-19.054 34.589,-19.054C36.832,-19.054 38.597,-18.236 39.884,-16.599C41.172,-14.963 41.815,-12.725 41.815,-9.887C41.815,-6.798 41.086,-4.306 39.627,-2.412C38.168,-0.518 36.248,0.429 33.868,0.429C31.659,0.429 29.822,-0.418 28.358,-2.111L28.358,6.78L24.976,6.78ZM28.358,-4.446C30.097,-2.89 31.756,-2.111 33.336,-2.111C36.586,-2.111 38.211,-4.589 38.211,-9.544C38.211,-13.916 36.769,-16.101 33.885,-16.101C31.997,-16.101 30.154,-15.077 28.358,-13.029L28.358,-4.446Z" style="fill-rule:nonzero;"/><path d="M60.766,-0.601C58.5,0.086 56.561,0.429 54.947,0.429C52.201,0.429 49.961,-0.483 48.227,-2.309C46.493,-4.134 45.626,-6.5 45.626,-9.407C45.626,-12.233 46.39,-14.551 47.918,-16.359C49.446,-18.167 51.4,-19.071 53.78,-19.071C56.034,-19.071 57.777,-18.27 59.007,-16.668C60.237,-15.066 60.852,-12.788 60.852,-9.836L60.835,-8.789L49.077,-8.789C49.569,-4.36 51.737,-2.146 55.582,-2.146C56.99,-2.146 58.718,-2.523 60.766,-3.279L60.766,-0.601ZM49.231,-11.329L57.453,-11.329C57.453,-14.797 56.16,-16.531 53.574,-16.531C50.976,-16.531 49.529,-14.797 49.231,-11.329Z" style="fill-rule:nonzero;"/><path d="M66.688,0L66.688,-18.642L70.07,-18.642L70.07,-15.14C71.855,-17.749 74.041,-19.054 76.627,-19.054C78.241,-19.054 79.528,-18.542 80.49,-17.518C81.451,-16.493 81.932,-15.117 81.932,-13.389L81.932,0L78.55,0L78.55,-12.291C78.55,-13.675 78.347,-14.662 77.941,-15.252C77.534,-15.841 76.862,-16.136 75.924,-16.136C73.852,-16.136 71.901,-14.78 70.07,-12.067L70.07,0L66.688,0Z" style="fill-rule:nonzero;"/></g></g><g transform="matrix(0.990412,0,0,1.00968,-295.46,-650.776)"><g id="text7890.-3.-1.-1"><path d="M8.325,0.429C6.78,0.429 4.904,0.069 2.695,-0.652L2.695,-3.759C4.904,-2.661 6.826,-2.111 8.463,-2.111C9.435,-2.111 10.242,-2.375 10.883,-2.901C11.524,-3.427 11.844,-4.085 11.844,-4.875C11.844,-6.031 10.946,-6.986 9.149,-7.742L7.175,-8.583C4.257,-9.796 2.798,-11.541 2.798,-13.818C2.798,-15.443 3.373,-16.722 4.523,-17.655C5.673,-18.588 7.25,-19.054 9.252,-19.054C10.294,-19.054 11.581,-18.911 13.115,-18.625L13.818,-18.487L13.818,-15.672C11.93,-16.233 10.431,-16.513 9.321,-16.513C7.147,-16.513 6.059,-15.724 6.059,-14.144C6.059,-13.126 6.883,-12.268 8.531,-11.57L10.162,-10.883C12.005,-10.105 13.309,-9.284 14.076,-8.42C14.843,-7.556 15.226,-6.477 15.226,-5.184C15.226,-3.548 14.579,-2.203 13.286,-1.15C11.993,-0.097 10.339,0.429 8.325,0.429Z" style="fill-rule:nonzero;"/><path d="M28.598,0.429C25.932,0.429 23.803,-0.455 22.212,-2.223C20.622,-3.991 19.826,-6.357 19.826,-9.321C19.826,-12.319 20.625,-14.691 22.221,-16.436C23.817,-18.181 25.983,-19.054 28.718,-19.054C31.453,-19.054 33.619,-18.181 35.215,-16.436C36.812,-14.691 37.61,-12.331 37.61,-9.355C37.61,-6.311 36.809,-3.919 35.207,-2.18C33.605,-0.441 31.402,0.429 28.598,0.429ZM28.649,-2.111C32.231,-2.111 34.022,-4.526 34.022,-9.355C34.022,-14.127 32.254,-16.513 28.718,-16.513C25.193,-16.513 23.431,-14.116 23.431,-9.321C23.431,-4.515 25.171,-2.111 28.649,-2.111Z" style="fill-rule:nonzero;"/><path d="M54.552,0L54.552,-3.502C52.756,-0.881 50.576,0.429 48.012,0.429C46.387,0.429 45.094,-0.083 44.133,-1.107C43.172,-2.131 42.691,-3.513 42.691,-5.253L42.691,-18.642L46.073,-18.642L46.073,-6.351C46.073,-4.955 46.276,-3.962 46.682,-3.373C47.088,-2.784 47.766,-2.489 48.716,-2.489C50.776,-2.489 52.721,-3.845 54.552,-6.557L54.552,-18.642L57.934,-18.642L57.934,0L54.552,0Z" style="fill-rule:nonzero;"/><path d="M64.714,0L64.714,-18.642L68.096,-18.642L68.096,-15.14C69.435,-17.749 71.38,-19.054 73.932,-19.054C74.276,-19.054 74.636,-19.025 75.014,-18.968L75.014,-15.81C74.43,-16.004 73.915,-16.101 73.469,-16.101C71.329,-16.101 69.538,-14.831 68.096,-12.291L68.096,0L64.714,0Z" style="fill-rule:nonzero;"/><path d="M86.377,0.429C83.86,0.429 81.771,-0.504 80.112,-2.369C78.453,-4.234 77.623,-6.586 77.623,-9.424C77.623,-12.457 78.444,-14.82 80.086,-16.513C81.728,-18.207 84.02,-19.054 86.961,-19.054C88.414,-19.054 90.039,-18.854 91.836,-18.453L91.836,-15.621C89.925,-16.181 88.369,-16.462 87.167,-16.462C85.439,-16.462 84.052,-15.812 83.004,-14.514C81.957,-13.215 81.434,-11.484 81.434,-9.321C81.434,-7.227 81.972,-5.533 83.047,-4.24C84.123,-2.947 85.531,-2.3 87.27,-2.3C88.815,-2.3 90.406,-2.695 92.042,-3.485L92.042,-0.566C89.856,0.097 87.968,0.429 86.377,0.429Z" style="fill-rule:nonzero;"/><path d="M110.77,-0.601C108.504,0.086 106.564,0.429 104.951,0.429C102.204,0.429 99.964,-0.483 98.23,-2.309C96.497,-4.134 95.63,-6.5 95.63,-9.407C95.63,-12.233 96.394,-14.551 97.921,-16.359C99.449,-18.167 101.403,-19.071 103.783,-19.071C106.038,-19.071 107.78,-18.27 109.01,-16.668C110.241,-15.066 110.856,-12.788 110.856,-9.836L110.839,-8.789L99.08,-8.789C99.572,-4.36 101.741,-2.146 105.586,-2.146C106.993,-2.146 108.721,-2.523 110.77,-3.279L110.77,-0.601ZM99.235,-11.329L107.457,-11.329C107.457,-14.797 106.164,-16.531 103.577,-16.531C100.98,-16.531 99.532,-14.797 99.235,-11.329Z" style="fill-rule:nonzero;"/></g></g><g transform="matrix(0.990412,0,0,1.00968,-363.359,-615.33)"><g id="text7890.-3.-1.-1.-4"><path d="M3.382,0L3.382,-18.642L6.763,-18.642L6.763,0L3.382,0ZM3.382,-22.024L3.382,-25.405L6.763,-25.405L6.763,-22.024L3.382,-22.024Z" style="fill-rule:nonzero;"/><path d="M13.544,0L13.544,-18.642L16.925,-18.642L16.925,-15.14C18.711,-17.749 20.896,-19.054 23.483,-19.054C25.096,-19.054 26.384,-18.542 27.345,-17.518C28.306,-16.493 28.787,-15.117 28.787,-13.389L28.787,0L25.405,0L25.405,-12.291C25.405,-13.675 25.202,-14.662 24.796,-15.252C24.39,-15.841 23.717,-16.136 22.779,-16.136C20.707,-16.136 18.756,-14.78 16.925,-12.067L16.925,0L13.544,0Z" style="fill-rule:nonzero;"/><path d="M35.361,0L35.361,-18.642L38.743,-18.642L38.743,0L35.361,0ZM35.361,-22.024L35.361,-25.405L38.743,-25.405L38.743,-22.024L35.361,-22.024Z" style="fill-rule:nonzero;"/><path d="M51.119,0.429C49.403,0.429 48.064,-0.063 47.103,-1.047C46.141,-2.031 45.661,-3.399 45.661,-5.15L45.661,-16.101L43.326,-16.101L43.326,-18.642L45.661,-18.642L45.661,-22.024L49.042,-22.35L49.042,-18.642L53.917,-18.642L53.917,-16.101L49.042,-16.101L49.042,-5.768C49.042,-3.33 50.095,-2.111 52.201,-2.111C52.647,-2.111 53.191,-2.186 53.831,-2.335L53.831,0C52.79,0.286 51.886,0.429 51.119,0.429Z" style="fill-rule:nonzero;"/><path d="M58.672,0L58.672,-18.642L62.054,-18.642L62.054,0L58.672,0ZM58.672,-22.024L58.672,-25.405L62.054,-25.405L62.054,-22.024L58.672,-22.024Z" style="fill-rule:nonzero;"/><path d="M78.447,-2.369C76.421,-0.504 74.47,0.429 72.593,0.429C71.049,0.429 69.767,-0.054 68.748,-1.021C67.73,-1.988 67.221,-3.21 67.221,-4.686C67.221,-6.723 68.076,-8.288 69.787,-9.381C71.498,-10.474 73.95,-11.02 77.142,-11.02L77.949,-11.02L77.949,-13.269C77.949,-15.432 76.839,-16.513 74.619,-16.513C72.834,-16.513 70.906,-15.964 68.834,-14.865L68.834,-17.663C71.112,-18.59 73.246,-19.054 75.237,-19.054C77.32,-19.054 78.856,-18.585 79.846,-17.646C80.836,-16.708 81.331,-15.249 81.331,-13.269L81.331,-4.824C81.331,-2.89 81.926,-1.923 83.116,-1.923C83.265,-1.923 83.482,-1.945 83.768,-1.991L84.009,-0.12C83.242,0.246 82.395,0.429 81.468,0.429C79.889,0.429 78.882,-0.504 78.447,-2.369ZM77.949,-4.206L77.949,-9.029L76.816,-9.063C74.962,-9.063 73.463,-8.712 72.319,-8.008C71.174,-7.304 70.602,-6.38 70.602,-5.236C70.602,-4.423 70.888,-3.736 71.461,-3.176C72.033,-2.615 72.731,-2.335 73.555,-2.335C74.962,-2.335 76.427,-2.958 77.949,-4.206Z" style="fill-rule:nonzero;"/><path d="M93.845,0.429C92.128,0.429 90.789,-0.063 89.828,-1.047C88.867,-2.031 88.386,-3.399 88.386,-5.15L88.386,-16.101L86.051,-16.101L86.051,-18.642L88.386,-18.642L88.386,-22.024L91.767,-22.35L91.767,-18.642L96.643,-18.642L96.643,-16.101L91.767,-16.101L91.767,-5.768C91.767,-3.33 92.82,-2.111 94.926,-2.111C95.372,-2.111 95.916,-2.186 96.557,-2.335L96.557,0C95.515,0.286 94.611,0.429 93.845,0.429Z" style="fill-rule:nonzero;"/><path d="M101.397,0L101.397,-18.642L104.779,-18.642L104.779,0L101.397,0ZM101.397,-22.024L101.397,-25.405L104.779,-25.405L104.779,-22.024L101.397,-22.024Z" style="fill-rule:nonzero;"/><path d="M115.422,0L108.487,-18.642L111.868,-18.642L117.293,-4.137L123.009,-18.642L126.167,-18.642L118.803,0L115.422,0Z" style="fill-rule:nonzero;"/><path d="M143.419,-0.601C141.153,0.086 139.213,0.429 137.6,0.429C134.853,0.429 132.613,-0.483 130.879,-2.309C129.146,-4.134 128.279,-6.5 128.279,-9.407C128.279,-12.233 129.043,-14.551 130.57,-16.359C132.098,-18.167 134.052,-19.071 136.432,-19.071C138.687,-19.071 140.429,-18.27 141.659,-16.668C142.89,-15.066 143.505,-12.788 143.505,-9.836L143.488,-8.789L131.729,-8.789C132.221,-4.36 134.39,-2.146 138.235,-2.146C139.642,-2.146 141.37,-2.523 143.419,-3.279L143.419,-0.601ZM131.884,-11.329L140.106,-11.329C140.106,-14.797 138.813,-16.531 136.226,-16.531C133.629,-16.531 132.181,-14.797 131.884,-11.329Z" style="fill-rule:nonzero;"/></g></g><g id="g3797" transform="matrix(1,0,0,1,-19.6439,-1.01468)"><g id="path3015" transform="matrix(0.339125,0,0,0.338527,-402.54,-908.375)"><path d="M645.888,619.741L646.061,619.743L646.234,619.746L646.407,619.75L646.579,619.755L646.752,619.761L646.924,619.768L647.095,619.776L647.267,619.785L647.438,619.795L647.609,619.807L647.78,619.819L647.951,619.833L648.12,619.847L648.291,619.863L648.46,619.88L648.63,619.897L648.799,619.916L648.967,619.936L649.136,619.957L649.304,619.979L649.471,620.002L649.639,620.026L649.806,620.051L649.973,620.077L650.139,620.104L650.306,620.132L650.471,620.161L650.637,620.191L650.802,620.222L650.967,620.254L651.131,620.287L651.295,620.321L651.459,620.357L651.622,620.393L651.785,620.43L651.948,620.468L652.11,620.507L652.272,620.547L652.433,620.588L652.594,620.63L652.755,620.673L652.916,620.717L653.076,620.762L653.235,620.807L653.394,620.854L653.553,620.902L653.711,620.951L653.869,621L654.026,621.051L654.183,621.102L654.34,621.155L654.496,621.208L654.652,621.262L654.807,621.318L654.962,621.374L655.116,621.431L655.27,621.489L655.424,621.548L655.577,621.608L655.729,621.668L655.882,621.73L656.033,621.793L656.185,621.856L656.335,621.92L656.485,621.985L656.635,622.051L656.785,622.118L656.933,622.186L657.082,622.255L657.229,622.325L657.377,622.395L657.523,622.466L657.67,622.539L657.816,622.611L657.961,622.685L658.106,622.76L658.25,622.836L658.394,622.912L658.537,622.989L658.68,623.067L658.822,623.146L658.964,623.226L659.105,623.306L659.246,623.388L659.386,623.47L659.525,623.553L659.663,623.637L659.802,623.722L659.94,623.807L660.077,623.893L660.214,623.981L660.35,624.068L660.485,624.157L660.62,624.246L660.755,624.337L660.889,624.428L661.022,624.52L661.155,624.612L661.287,624.705L661.418,624.8L661.549,624.895L661.679,624.99L661.809,625.086L661.939,625.184L662.067,625.281L662.195,625.38L662.322,625.48L662.449,625.58L662.575,625.681L662.7,625.782L662.825,625.884L662.949,625.988L663.073,626.092L663.196,626.196L663.318,626.301L663.439,626.407L663.561,626.514L663.681,626.621L663.8,626.73L663.92,626.838L664.038,626.948L664.156,627.058L664.273,627.169L664.389,627.28L664.505,627.393L664.62,627.506L664.734,627.62L664.848,627.734L664.961,627.849L665.073,627.965L665.185,628.081L665.296,628.198L665.406,628.316L665.516,628.435L665.624,628.553L665.732,628.673L665.84,628.793L665.947,628.914L666.053,629.036L666.158,629.158L666.262,629.281L666.366,629.405L666.469,629.529L666.572,629.654L666.674,629.78L666.774,629.906L666.874,630.032L666.974,630.159L667.073,630.287L667.17,630.416L667.268,630.545L667.364,630.675L667.46,630.805L667.555,630.936L667.649,631.067L667.742,631.2L667.835,631.332L667.926,631.465L668.017,631.599L668.108,631.734L668.197,631.869L668.286,632.004L668.374,632.141L668.461,632.277L668.547,632.415L668.633,632.552L668.718,632.691L668.801,632.83L668.884,632.969L668.967,633.11L669.048,633.25L669.129,633.391L669.208,633.533L669.287,633.675L669.365,633.818L669.443,633.961L669.519,634.105L669.595,634.25L669.669,634.394L669.743,634.54L669.816,634.686L669.889,634.832L669.96,634.978L670.03,635.126L670.1,635.274L670.169,635.422L670.237,635.571L670.303,635.72L670.37,635.87L670.435,636.021L670.499,636.172L670.562,636.323L670.625,636.475L670.687,636.627L670.748,636.779L670.807,636.933L670.866,637.086L670.924,637.24L670.981,637.394L671.038,637.549L671.093,637.705L671.147,637.861L671.201,638.017L671.253,638.174L671.305,638.331L671.355,638.488L671.405,638.646L671.454,638.804L671.501,638.963L671.548,639.122L671.594,639.282L671.639,639.442L671.683,639.603L671.726,639.763L671.768,639.925L671.809,640.086L671.849,640.248L671.888,640.41L671.926,640.573L671.963,640.736L671.999,640.9L672.034,641.063L672.069,641.228L672.102,641.392L672.134,641.557L672.165,641.722L672.195,641.888L672.224,642.054L672.252,642.22L672.279,642.387L672.305,642.553L672.33,642.72L672.354,642.888L672.377,643.056L672.399,643.224L672.42,643.393L672.44,643.562L672.459,643.731L672.477,643.9L672.493,644.07L672.509,644.24L672.524,644.411L672.537,644.581L672.549,644.751L672.561,644.923L672.571,645.094L672.58,645.266L672.589,645.438L672.596,645.61L672.602,645.782L672.607,645.955L672.61,646.128L672.613,646.301L672.615,646.474L672.615,646.648L672.615,646.822L672.613,646.995L672.61,647.168L672.607,647.341L672.602,647.514L672.596,647.686L672.589,647.858L672.58,648.03L672.571,648.202L672.561,648.373L672.549,648.544L672.537,648.715L672.524,648.885L672.509,649.056L672.493,649.226L672.477,649.396L672.459,649.565L672.44,649.734L672.42,649.903L672.399,650.071L672.377,650.239L672.354,650.407L672.33,650.575L672.305,650.742L672.279,650.909L672.252,651.076L672.224,651.242L672.195,651.408L672.165,651.574L672.134,651.739L672.102,651.904L672.069,652.068L672.035,652.232L671.999,652.396L671.963,652.56L671.926,652.723L671.888,652.885L671.849,653.048L671.809,653.209L671.768,653.371L671.726,653.532L671.683,653.693L671.639,653.854L671.594,654.014L671.548,654.173L671.501,654.332L671.454,654.491L671.405,654.649L671.355,654.807L671.305,654.965L671.253,655.122L671.201,655.279L671.147,655.435L671.093,655.591L671.038,655.746L670.981,655.901L670.924,656.056L670.866,656.21L670.807,656.363L670.748,656.516L670.687,656.669L670.625,656.821L670.563,656.973L670.499,657.124L670.435,657.275L670.37,657.425L670.303,657.575L670.236,657.725L670.169,657.873L670.1,658.022L670.03,658.17L669.96,658.317L669.889,658.464L669.816,658.61L669.743,658.756L669.669,658.902L669.595,659.046L669.519,659.191L669.443,659.335L669.365,659.478L669.287,659.62L669.208,659.763L669.129,659.905L669.048,660.046L668.967,660.186L668.884,660.327L668.801,660.466L668.718,660.605L668.633,660.743L668.547,660.881L668.461,661.018L668.374,661.155L668.286,661.291L668.197,661.427L668.108,661.562L668.018,661.696L667.926,661.83L667.835,661.964L667.742,662.096L667.649,662.228L667.555,662.36L667.46,662.491L667.364,662.621L667.268,662.751L667.171,662.88L667.073,663.009L666.974,663.137L666.874,663.264L666.774,663.39L666.674,663.516L666.572,663.642L666.469,663.767L666.366,663.891L666.262,664.014L666.158,664.137L666.053,664.26L665.946,664.382L665.84,664.502L665.733,664.623L665.624,664.743L665.515,664.861L665.406,664.98L665.296,665.097L665.185,665.215L665.073,665.331L664.961,665.447L664.848,665.562L664.734,665.676L664.62,665.79L664.505,665.903L664.389,666.015L664.273,666.127L664.156,666.237L664.038,666.348L663.919,666.458L663.8,666.566L663.681,666.674L663.56,666.782L663.44,666.888L663.318,666.994L663.196,667.1L663.073,667.204L662.949,667.308L662.825,667.411L662.7,667.513L662.575,667.615L662.449,667.716L662.322,667.816L662.195,667.916L662.067,668.014L661.939,668.112L661.809,668.209L661.68,668.306L661.549,668.401L661.418,668.496L661.287,668.59L661.155,668.684L661.022,668.776L660.889,668.868L660.755,668.959L660.62,669.049L660.486,669.139L660.35,669.227L660.214,669.315L660.077,669.403L659.94,669.489L659.802,669.574L659.664,669.659L659.525,669.743L659.385,669.826L659.245,669.908L659.105,669.989L658.964,670.07L658.822,670.149L658.68,670.228L658.537,670.307L658.394,670.384L658.25,670.46L658.106,670.536L657.961,670.61L657.816,670.684L657.67,670.757L657.524,670.829L657.377,670.901L657.229,670.971L657.082,671.041L656.933,671.11L656.784,671.177L656.635,671.244L656.486,671.31L656.336,671.375L656.184,671.44L656.033,671.503L655.882,671.566L655.729,671.627L655.577,671.688L655.424,671.748L655.27,671.807L655.116,671.865L654.962,671.922L654.807,671.978L654.652,672.033L654.496,672.087L654.34,672.141L654.183,672.193L654.026,672.245L653.869,672.295L653.711,672.345L653.553,672.394L653.394,672.441L653.235,672.488L653.075,672.534L652.916,672.579L652.755,672.623L652.595,672.666L652.433,672.708L652.272,672.749L652.11,672.789L651.948,672.828L651.785,672.866L651.622,672.903L651.459,672.939L651.295,672.974L651.131,673.008L650.967,673.042L650.802,673.074L650.637,673.105L650.471,673.135L650.306,673.164L650.139,673.192L649.973,673.219L649.806,673.245L649.639,673.27L649.471,673.294L649.304,673.317L649.136,673.339L648.967,673.36L648.798,673.38L648.63,673.398L648.46,673.416L648.291,673.433L648.121,673.448L647.95,673.463L647.78,673.477L647.609,673.489L647.438,673.5L647.267,673.511L647.096,673.52L646.924,673.528L646.752,673.535L646.579,673.541L646.407,673.546L646.234,673.55L646.061,673.553L645.888,673.554L645.714,673.555L645.541,673.554L645.368,673.553L645.194,673.55L645.021,673.546L644.85,673.541L644.677,673.535L644.505,673.528L644.333,673.52L644.161,673.511L643.99,673.5L643.819,673.489L643.649,673.477L643.478,673.463L643.308,673.448L643.138,673.433L642.968,673.416L642.799,673.398L642.63,673.38L642.461,673.36L642.293,673.339L642.125,673.317L641.957,673.294L641.79,673.27L641.622,673.245L641.456,673.219L641.289,673.192L641.123,673.164L640.957,673.135L640.792,673.105L640.627,673.074L640.462,673.042L640.297,673.008L640.133,672.974L639.97,672.939L639.806,672.903L639.643,672.866L639.481,672.828L639.319,672.789L639.157,672.749L638.995,672.708L638.834,672.666L638.673,672.623L638.513,672.579L638.353,672.534L638.194,672.488L638.034,672.441L637.876,672.394L637.718,672.345L637.56,672.295L637.402,672.245L637.245,672.193L637.089,672.141L636.932,672.087L636.777,672.033L636.622,671.978L636.467,671.922L636.312,671.865L636.158,671.807L636.005,671.748L635.852,671.688L635.699,671.627L635.547,671.566L635.395,671.503L635.244,671.44L635.093,671.375L634.943,671.31L634.793,671.244L634.644,671.177L634.495,671.11L634.347,671.041L634.199,670.971L634.052,670.901L633.905,670.829L633.759,670.757L633.613,670.684L633.467,670.61L633.323,670.536L633.179,670.46L633.035,670.384L632.892,670.307L632.749,670.228L632.606,670.149L632.465,670.07L632.324,669.989L632.183,669.908L632.043,669.826L631.904,669.743L631.765,669.659L631.626,669.574L631.489,669.489L631.352,669.403L631.215,669.315L631.078,669.227L630.943,669.139L630.808,669.049L630.674,668.959L630.54,668.868L630.406,668.776L630.274,668.684L630.142,668.59L630.01,668.496L629.879,668.401L629.749,668.306L629.619,668.209L629.49,668.112L629.362,668.014L629.234,667.916L629.106,667.816L628.98,667.716L628.854,667.615L628.728,667.513L628.603,667.411L628.479,667.308L628.356,667.204L628.233,667.1L628.111,666.994L627.989,666.888L627.868,666.782L627.748,666.674L627.628,666.566L627.509,666.458L627.391,666.348L627.273,666.237L627.156,666.127L627.04,666.015L626.924,665.903L626.809,665.79L626.695,665.676L626.581,665.562L626.468,665.447L626.355,665.331L626.244,665.215L626.133,665.098L626.023,664.98L625.913,664.861L625.804,664.743L625.696,664.623L625.589,664.502L625.482,664.382L625.376,664.26L625.271,664.137L625.166,664.014L625.062,663.891L624.959,663.767L624.857,663.642L624.755,663.517L624.654,663.39L624.554,663.264L624.455,663.137L624.356,663.009L624.258,662.88L624.161,662.751L624.064,662.621L623.969,662.491L623.874,662.36L623.78,662.228L623.686,662.096L623.594,661.964L623.502,661.83L623.411,661.696L623.321,661.562L623.231,661.427L623.143,661.291L623.055,661.155L622.968,661.018L622.881,660.881L622.796,660.743L622.711,660.605L622.628,660.466L622.544,660.326L622.462,660.186L622.381,660.046L622.3,659.904L622.22,659.763L622.141,659.621L622.063,659.478L621.986,659.335L621.909,659.191L621.834,659.046L621.759,658.902L621.685,658.756L621.612,658.61L621.54,658.464L621.469,658.317L621.398,658.17L621.329,658.022L621.26,657.873L621.192,657.725L621.125,657.575L621.059,657.425L620.994,657.275L620.929,657.124L620.866,656.973L620.803,656.821L620.742,656.669L620.681,656.517L620.621,656.363L620.562,656.21L620.504,656.056L620.447,655.901L620.391,655.746L620.336,655.591L620.281,655.435L620.228,655.279L620.176,655.122L620.124,654.965L620.073,654.807L620.024,654.65L619.975,654.491L619.927,654.332L619.88,654.173L619.834,654.013L619.79,653.853L619.746,653.693L619.703,653.532L619.661,653.371L619.62,653.21L619.58,653.048L619.541,652.885L619.502,652.723L619.465,652.56L619.429,652.396L619.394,652.232L619.36,652.068L619.327,651.904L619.295,651.739L619.264,651.573L619.233,651.408L619.204,651.242L619.176,651.076L619.149,650.909L619.123,650.742L619.098,650.575L619.074,650.407L619.051,650.239L619.029,650.071L619.008,649.903L618.989,649.734L618.97,649.565L618.952,649.395L618.935,649.226L618.92,649.056L618.905,648.886L618.892,648.715L618.879,648.544L618.868,648.373L618.857,648.202L618.848,648.03L618.84,647.858L618.833,647.686L618.827,647.513L618.822,647.341L618.818,647.168L618.815,646.995L618.814,646.821L618.813,646.648L618.814,646.474L618.815,646.301L618.818,646.128L618.822,645.955L618.827,645.782L618.833,645.61L618.84,645.438L618.848,645.266L618.857,645.094L618.868,644.923L618.879,644.751L618.892,644.58L618.905,644.41L618.92,644.24L618.935,644.07L618.952,643.9L618.97,643.731L618.989,643.562L619.008,643.393L619.029,643.224L619.051,643.056L619.074,642.888L619.098,642.721L619.123,642.553L619.149,642.387L619.176,642.22L619.204,642.053L619.233,641.888L619.264,641.722L619.295,641.557L619.327,641.392L619.36,641.228L619.394,641.063L619.429,640.9L619.465,640.736L619.502,640.573L619.541,640.41L619.58,640.248L619.62,640.086L619.661,639.925L619.703,639.763L619.746,639.603L619.79,639.443L619.834,639.282L619.88,639.122L619.927,638.963L619.975,638.804L620.024,638.646L620.073,638.488L620.124,638.331L620.176,638.173L620.228,638.017L620.281,637.861L620.336,637.705L620.391,637.549L620.447,637.395L620.504,637.24L620.562,637.086L620.621,636.933L620.681,636.779L620.742,636.627L620.803,636.475L620.866,636.323L620.929,636.172L620.994,636.021L621.059,635.871L621.125,635.72L621.192,635.571L621.26,635.422L621.329,635.274L621.398,635.126L621.469,634.979L621.54,634.832L621.612,634.686L621.685,634.54L621.759,634.394L621.834,634.25L621.909,634.105L621.986,633.961L622.063,633.818L622.141,633.675L622.22,633.533L622.3,633.391L622.381,633.25L622.462,633.11L622.544,632.97L622.628,632.83L622.711,632.691L622.796,632.553L622.881,632.415L622.968,632.277L623.055,632.14L623.143,632.004L623.231,631.869L623.321,631.734L623.411,631.599L623.502,631.466L623.594,631.332L623.686,631.2L623.78,631.067L623.874,630.936L623.969,630.805L624.064,630.675L624.161,630.545L624.258,630.416L624.356,630.287L624.455,630.159L624.554,630.032L624.654,629.906L624.755,629.779L624.857,629.654L624.959,629.529L625.062,629.405L625.166,629.281L625.271,629.158L625.376,629.036L625.482,628.914L625.589,628.793L625.696,628.673L625.804,628.553L625.913,628.435L626.023,628.316L626.133,628.198L626.244,628.081L626.356,627.965L626.468,627.849L626.581,627.734L626.695,627.62L626.809,627.506L626.924,627.393L627.04,627.28L627.156,627.169L627.273,627.058L627.391,626.948L627.509,626.838L627.628,626.73L627.748,626.621L627.868,626.514L627.989,626.407L628.111,626.301L628.233,626.196L628.356,626.092L628.479,625.988L628.604,625.884L628.728,625.782L628.854,625.681L628.98,625.58L629.106,625.48L629.234,625.38L629.362,625.281L629.49,625.184L629.619,625.086L629.749,624.99L629.879,624.895L630.01,624.799L630.142,624.705L630.274,624.612L630.406,624.52L630.539,624.428L630.674,624.337L630.808,624.246L630.943,624.157L631.078,624.068L631.215,623.981L631.351,623.893L631.489,623.807L631.626,623.722L631.765,623.637L631.904,623.553L632.043,623.47L632.183,623.388L632.324,623.306L632.465,623.226L632.607,623.146L632.749,623.067L632.892,622.989L633.034,622.912L633.178,622.836L633.323,622.76L633.468,622.685L633.613,622.611L633.759,622.538L633.905,622.466L634.052,622.395L634.199,622.325L634.347,622.255L634.495,622.186L634.644,622.118L634.793,622.051L634.943,621.985L635.093,621.92L635.244,621.856L635.395,621.793L635.547,621.73L635.699,621.668L635.852,621.608L636.004,621.548L636.158,621.489L636.312,621.431L636.467,621.374L636.622,621.318L636.777,621.262L636.932,621.208L637.088,621.155L637.245,621.102L637.403,621.051L637.56,621L637.717,620.951L637.876,620.902L638.035,620.854L638.194,620.807L638.353,620.762L638.513,620.717L638.674,620.673L638.834,620.63L638.995,620.588L639.156,620.547L639.319,620.507L639.481,620.468L639.643,620.43L639.806,620.393L639.97,620.357L640.133,620.321L640.297,620.287L640.462,620.254L640.627,620.222L640.792,620.191L640.957,620.161L641.123,620.132L641.289,620.104L641.456,620.077L641.622,620.051L641.79,620.026L641.957,620.002L642.125,619.979L642.293,619.957L642.462,619.936L642.63,619.916L642.799,619.897L642.968,619.88L643.138,619.863L643.308,619.847L643.478,619.833L643.648,619.819L643.819,619.807L643.99,619.795L644.161,619.785L644.333,619.776L644.505,619.768L644.677,619.761L644.849,619.755L645.022,619.75L645.195,619.746L645.367,619.743L645.54,619.741L645.714,619.741L645.888,619.741ZM645.583,626.412L645.452,626.414L645.321,626.416L645.19,626.419L645.06,626.422L644.93,626.427L644.799,626.432L644.669,626.438L644.54,626.445L644.411,626.453L644.281,626.462L644.153,626.471L644.024,626.481L643.896,626.492L643.768,626.504L643.64,626.517L643.513,626.53L643.385,626.544L643.258,626.559L643.131,626.575L643.005,626.591L642.878,626.609L642.752,626.627L642.627,626.645L642.501,626.665L642.376,626.685L642.251,626.706L642.126,626.728L642.002,626.751L641.878,626.774L641.754,626.799L641.63,626.823L641.507,626.849L641.384,626.875L641.261,626.903L641.139,626.93L641.016,626.959L640.895,626.988L640.773,627.018L640.652,627.049L640.53,627.081L640.41,627.113L640.29,627.146L640.17,627.18L640.05,627.214L639.93,627.249L639.811,627.285L639.692,627.322L639.574,627.359L639.455,627.397L639.337,627.436L639.22,627.475L639.103,627.515L638.985,627.556L638.869,627.597L638.753,627.64L638.636,627.683L638.521,627.726L638.406,627.77L638.291,627.815L638.176,627.861L638.062,627.907L637.948,627.954L637.834,628.002L637.721,628.05L637.608,628.099L637.496,628.149L637.384,628.199L637.272,628.25L637.16,628.302L637.049,628.354L636.938,628.407L636.828,628.46L636.718,628.515L636.608,628.569L636.499,628.625L636.39,628.681L636.282,628.738L636.174,628.795L636.066,628.854L635.958,628.913L635.852,628.972L635.745,629.032L635.639,629.092L635.534,629.153L635.428,629.215L635.323,629.278L635.218,629.341L635.114,629.405L635.011,629.469L634.907,629.534L634.804,629.599L634.702,629.665L634.6,629.732L634.498,629.8L634.397,629.868L634.296,629.936L634.196,630.005L634.096,630.075L633.996,630.145L633.897,630.216L633.799,630.287L633.7,630.36L633.603,630.432L633.506,630.505L633.409,630.579L633.313,630.653L633.217,630.728L633.121,630.804L633.026,630.88L632.932,630.956L632.838,631.034L632.744,631.111L632.651,631.189L632.559,631.268L632.466,631.348L632.375,631.427L632.284,631.508L632.193,631.589L632.103,631.67L632.013,631.752L631.924,631.835L631.835,631.918L631.747,632.001L631.659,632.086L631.572,632.17L631.485,632.255L631.399,632.341L631.314,632.427L631.228,632.514L631.144,632.601L631.06,632.689L630.976,632.777L630.893,632.866L630.811,632.955L630.728,633.045L630.647,633.135L630.566,633.226L630.486,633.317L630.406,633.408L630.326,633.5L630.248,633.593L630.169,633.686L630.092,633.78L630.015,633.874L629.938,633.968L629.862,634.063L629.786,634.159L629.712,634.254L629.637,634.351L629.563,634.448L629.49,634.545L629.418,634.642L629.346,634.74L629.274,634.839L629.204,634.938L629.133,635.037L629.063,635.137L628.994,635.238L628.926,635.339L628.858,635.44L628.791,635.541L628.724,635.643L628.658,635.746L628.592,635.849L628.528,635.951L628.463,636.055L628.4,636.16L628.336,636.264L628.274,636.369L628.212,636.474L628.151,636.58L628.091,636.686L628.03,636.793L627.971,636.9L627.913,637.007L627.854,637.114L627.797,637.223L627.74,637.331L627.684,637.44L627.628,637.549L627.574,637.658L627.52,637.768L627.466,637.879L627.413,637.99L627.361,638.1L627.309,638.212L627.258,638.324L627.208,638.436L627.158,638.548L627.109,638.661L627.061,638.774L627.013,638.888L626.966,639.001L626.92,639.116L626.875,639.231L626.83,639.345L626.786,639.46L626.742,639.576L626.699,639.692L626.657,639.808L626.616,639.925L626.575,640.042L626.535,640.159L626.495,640.276L626.457,640.394L626.419,640.512L626.381,640.631L626.345,640.75L626.309,640.869L626.274,640.988L626.24,641.107L626.206,641.227L626.173,641.348L626.141,641.469L626.109,641.59L626.078,641.711L626.048,641.832L626.019,641.954L625.99,642.076L625.963,642.198L625.936,642.321L625.909,642.444L625.884,642.567L625.859,642.691L625.835,642.815L625.811,642.938L625.789,643.063L625.767,643.188L625.746,643.312L625.725,643.437L625.706,643.563L625.687,643.688L625.669,643.814L625.652,643.941L625.635,644.067L625.62,644.194L625.605,644.321L625.59,644.448L625.577,644.575L625.565,644.703L625.553,644.831L625.542,644.959L625.532,645.088L625.522,645.217L625.514,645.345L625.506,645.475L625.499,645.604L625.493,645.734L625.487,645.864L625.483,645.994L625.479,646.124L625.476,646.255L625.474,646.385L625.473,646.516L625.473,646.648L625.473,646.779L625.474,646.91L625.476,647.041L625.479,647.171L625.483,647.302L625.487,647.432L625.493,647.562L625.499,647.692L625.506,647.821L625.514,647.951L625.522,648.079L625.532,648.208L625.542,648.336L625.553,648.465L625.565,648.593L625.577,648.72L625.59,648.848L625.605,648.975L625.619,649.102L625.635,649.229L625.652,649.355L625.669,649.481L625.687,649.607L625.706,649.733L625.725,649.859L625.746,649.983L625.767,650.108L625.789,650.233L625.811,650.357L625.835,650.481L625.859,650.605L625.884,650.729L625.909,650.852L625.936,650.975L625.963,651.097L625.991,651.22L626.019,651.342L626.048,651.463L626.078,651.585L626.109,651.706L626.141,651.827L626.173,651.948L626.206,652.068L626.24,652.188L626.274,652.308L626.309,652.427L626.345,652.546L626.381,652.665L626.419,652.784L626.457,652.902L626.495,653.019L626.535,653.137L626.575,653.254L626.616,653.371L626.657,653.488L626.699,653.604L626.742,653.72L626.785,653.835L626.83,653.951L626.875,654.065L626.92,654.18L626.966,654.294L627.013,654.408L627.061,654.522L627.109,654.635L627.158,654.748L627.208,654.86L627.258,654.972L627.309,655.084L627.361,655.195L627.413,655.306L627.466,655.417L627.52,655.528L627.574,655.637L627.629,655.747L627.684,655.856L627.74,655.965L627.797,656.073L627.854,656.181L627.913,656.289L627.971,656.396L628.03,656.503L628.091,656.61L628.151,656.716L628.212,656.822L628.274,656.927L628.336,657.031L628.4,657.136L628.463,657.24L628.528,657.344L628.592,657.447L628.658,657.55L628.724,657.653L628.791,657.755L628.858,657.856L628.926,657.957L628.995,658.058L629.063,658.158L629.133,658.258L629.204,658.358L629.274,658.457L629.346,658.555L629.418,658.653L629.491,658.751L629.564,658.848L629.637,658.945L629.712,659.041L629.786,659.137L629.862,659.233L629.938,659.328L630.015,659.422L630.092,659.516L630.169,659.61L630.248,659.703L630.326,659.795L630.406,659.888L630.485,659.979L630.566,660.07L630.647,660.161L630.728,660.251L630.81,660.341L630.893,660.43L630.976,660.519L631.06,660.607L631.144,660.695L631.228,660.782L631.313,660.869L631.399,660.955L631.485,661.04L631.572,661.126L631.659,661.21L631.747,661.294L631.835,661.378L631.924,661.461L632.013,661.543L632.103,661.626L632.193,661.707L632.283,661.788L632.375,661.869L632.467,661.948L632.559,662.028L632.651,662.106L632.744,662.185L632.838,662.262L632.932,662.34L633.026,662.416L633.121,662.492L633.217,662.568L633.312,662.642L633.409,662.717L633.506,662.791L633.603,662.864L633.701,662.936L633.799,663.008L633.897,663.08L633.996,663.151L634.096,663.221L634.196,663.291L634.296,663.36L634.397,663.428L634.498,663.496L634.6,663.564L634.702,663.63L634.804,663.696L634.907,663.762L635.01,663.827L635.115,663.891L635.218,663.955L635.323,664.018L635.428,664.08L635.533,664.142L635.639,664.203L635.745,664.264L635.852,664.324L635.959,664.383L636.066,664.442L636.174,664.5L636.282,664.558L636.39,664.615L636.499,664.671L636.608,664.726L636.718,664.781L636.828,664.836L636.939,664.889L637.049,664.942L637.16,664.994L637.271,665.046L637.383,665.097L637.496,665.147L637.609,665.197L637.721,665.246L637.834,665.294L637.948,665.342L638.062,665.389L638.176,665.435L638.291,665.481L638.406,665.526L638.521,665.57L638.637,665.613L638.753,665.656L638.869,665.698L638.986,665.74L639.103,665.781L639.22,665.821L639.337,665.86L639.456,665.899L639.574,665.937L639.692,665.974L639.811,666.011L639.931,666.047L640.05,666.082L640.169,666.116L640.29,666.15L640.41,666.183L640.531,666.215L640.652,666.246L640.773,666.277L640.895,666.307L641.017,666.337L641.139,666.365L641.261,666.393L641.384,666.42L641.507,666.447L641.63,666.472L641.754,666.497L641.877,666.521L642.002,666.545L642.126,666.567L642.251,666.589L642.376,666.61L642.501,666.631L642.627,666.65L642.752,666.669L642.878,666.687L643.005,666.704L643.131,666.721L643.258,666.737L643.385,666.752L643.513,666.766L643.64,666.779L643.768,666.792L643.896,666.803L644.024,666.814L644.153,666.825L644.282,666.834L644.411,666.843L644.54,666.85L644.67,666.857L644.799,666.864L644.929,666.869L645.059,666.873L645.19,666.877L645.321,666.88L645.452,666.882L645.583,666.883L645.714,666.884L645.846,666.883L645.977,666.882L646.108,666.88L646.238,666.877L646.369,666.873L646.499,666.869L646.629,666.864L646.759,666.857L646.889,666.85L647.018,666.843L647.147,666.834L647.276,666.825L647.405,666.814L647.533,666.803L647.661,666.792L647.788,666.779L647.916,666.766L648.044,666.752L648.17,666.737L648.297,666.721L648.424,666.704L648.55,666.687L648.676,666.669L648.802,666.65L648.928,666.631L649.053,666.61L649.178,666.589L649.302,666.567L649.427,666.545L649.551,666.521L649.675,666.497L649.798,666.472L649.922,666.447L650.045,666.42L650.167,666.393L650.29,666.365L650.412,666.337L650.534,666.307L650.656,666.277L650.777,666.246L650.898,666.215L651.018,666.183L651.139,666.15L651.259,666.116L651.379,666.082L651.498,666.047L651.618,666.011L651.737,665.974L651.855,665.937L651.973,665.899L652.091,665.86L652.209,665.821L652.326,665.781L652.443,665.74L652.56,665.698L652.676,665.656L652.792,665.613L652.907,665.57L653.023,665.526L653.138,665.481L653.253,665.435L653.367,665.389L653.481,665.342L653.594,665.294L653.707,665.246L653.82,665.197L653.933,665.147L654.045,665.097L654.157,665.046L654.268,664.994L654.38,664.942L654.49,664.889L654.6,664.836L654.711,664.781L654.82,664.726L654.929,664.671L655.038,664.615L655.147,664.558L655.255,664.5L655.363,664.442L655.47,664.384L655.577,664.324L655.683,664.264L655.79,664.203L655.895,664.142L656.001,664.08L656.106,664.018L656.21,663.955L656.314,663.891L656.418,663.827L656.522,663.762L656.624,663.696L656.727,663.63L656.829,663.564L656.931,663.496L657.032,663.428L657.132,663.36L657.233,663.291L657.333,663.221L657.432,663.151L657.531,663.08L657.63,663.008L657.728,662.936L657.826,662.864L657.923,662.791L658.02,662.717L658.116,662.642L658.212,662.568L658.307,662.492L658.402,662.416L658.497,662.34L658.591,662.262L658.684,662.185L658.778,662.106L658.87,662.028L658.962,661.948L659.054,661.869L659.145,661.788L659.236,661.707L659.326,661.626L659.416,661.543L659.505,661.461L659.593,661.378L659.682,661.294L659.769,661.21L659.857,661.126L659.943,661.04L660.03,660.955L660.115,660.869L660.2,660.782L660.285,660.695L660.369,660.607L660.453,660.519L660.536,660.43L660.618,660.341L660.7,660.251L660.782,660.161L660.863,660.07L660.943,659.979L661.023,659.888L661.102,659.795L661.181,659.703L661.259,659.61L661.337,659.516L661.414,659.422L661.49,659.328L661.566,659.233L661.642,659.137L661.717,659.041L661.791,658.945L661.865,658.848L661.938,658.751L662.011,658.653L662.083,658.555L662.154,658.457L662.225,658.358L662.295,658.258L662.365,658.158L662.434,658.058L662.503,657.957L662.57,657.856L662.638,657.755L662.705,657.653L662.771,657.55L662.836,657.447L662.901,657.344L662.965,657.24L663.029,657.136L663.092,657.032L663.155,656.927L663.216,656.822L663.278,656.716L663.338,656.61L663.398,656.503L663.457,656.397L663.516,656.289L663.574,656.181L663.632,656.073L663.688,655.965L663.745,655.856L663.8,655.747L663.855,655.637L663.909,655.527L663.963,655.417L664.016,655.306L664.068,655.196L664.119,655.084L664.171,654.972L664.221,654.86L664.27,654.748L664.319,654.635L664.368,654.522L664.415,654.408L664.462,654.294L664.508,654.18L664.554,654.066L664.599,653.951L664.643,653.835L664.687,653.719L664.729,653.604L664.772,653.488L664.813,653.371L664.854,653.254L664.894,653.137L664.933,653.02L664.972,652.902L665.01,652.784L665.047,652.665L665.084,652.546L665.119,652.427L665.155,652.308L665.189,652.188L665.223,652.068L665.256,651.948L665.288,651.827L665.319,651.706L665.35,651.585L665.38,651.464L665.41,651.342L665.438,651.22L665.466,651.097L665.493,650.975L665.519,650.852L665.545,650.729L665.57,650.605L665.594,650.481L665.617,650.357L665.64,650.233L665.662,650.108L665.683,649.983L665.703,649.859L665.723,649.733L665.742,649.607L665.76,649.481L665.777,649.355L665.793,649.229L665.809,649.102L665.824,648.975L665.838,648.848L665.851,648.72L665.864,648.592L665.876,648.465L665.887,648.337L665.897,648.208L665.906,648.079L665.915,647.95L665.923,647.821L665.93,647.692L665.936,647.562L665.941,647.432L665.946,647.302L665.949,647.171L665.952,647.041L665.954,646.91L665.956,646.779L665.956,646.648L665.956,646.517L665.954,646.386L665.952,646.254L665.949,646.124L665.946,645.994L665.941,645.864L665.936,645.734L665.93,645.604L665.923,645.475L665.915,645.346L665.906,645.217L665.897,645.088L665.887,644.959L665.876,644.831L665.864,644.703L665.851,644.576L665.838,644.448L665.824,644.321L665.809,644.194L665.793,644.067L665.777,643.941L665.76,643.814L665.742,643.689L665.723,643.563L665.703,643.437L665.683,643.312L665.662,643.187L665.64,643.063L665.617,642.939L665.594,642.815L665.57,642.691L665.545,642.567L665.519,642.444L665.493,642.321L665.466,642.198L665.438,642.076L665.41,641.954L665.38,641.832L665.35,641.71L665.319,641.59L665.288,641.469L665.256,641.348L665.223,641.228L665.189,641.108L665.155,640.988L665.119,640.869L665.084,640.75L665.047,640.631L665.01,640.512L664.972,640.394L664.933,640.276L664.894,640.159L664.854,640.042L664.813,639.925L664.772,639.808L664.729,639.692L664.687,639.576L664.643,639.46L664.599,639.345L664.554,639.23L664.508,639.116L664.462,639.001L664.415,638.888L664.368,638.774L664.319,638.661L664.27,638.548L664.221,638.436L664.17,638.324L664.119,638.212L664.068,638.1L664.016,637.989L663.963,637.879L663.909,637.769L663.855,637.658L663.8,637.549L663.745,637.44L663.688,637.331L663.632,637.223L663.574,637.114L663.516,637.007L663.457,636.899L663.398,636.792L663.338,636.686L663.278,636.58L663.216,636.474L663.155,636.369L663.092,636.264L663.029,636.159L662.965,636.056L662.901,635.952L662.836,635.849L662.771,635.746L662.705,635.643L662.638,635.541L662.57,635.439L662.503,635.339L662.434,635.238L662.365,635.137L662.295,635.037L662.225,634.938L662.154,634.839L662.083,634.74L662.011,634.642L661.938,634.545L661.865,634.448L661.791,634.351L661.717,634.254L661.642,634.159L661.566,634.063L661.49,633.968L661.414,633.874L661.337,633.78L661.259,633.686L661.181,633.593L661.102,633.5L661.023,633.408L660.943,633.317L660.863,633.226L660.782,633.135L660.7,633.045L660.618,632.955L660.536,632.866L660.453,632.777L660.369,632.689L660.285,632.601L660.2,632.514L660.115,632.427L660.03,632.341L659.943,632.255L659.856,632.17L659.77,632.086L659.682,632.001L659.593,631.918L659.505,631.835L659.416,631.752L659.326,631.67L659.236,631.589L659.145,631.508L659.054,631.427L658.962,631.348L658.87,631.268L658.777,631.189L658.684,631.111L658.591,631.034L658.497,630.956L658.402,630.88L658.307,630.804L658.212,630.728L658.116,630.653L658.02,630.579L657.923,630.505L657.826,630.432L657.728,630.36L657.63,630.287L657.531,630.216L657.432,630.145L657.333,630.075L657.233,630.005L657.132,629.936L657.032,629.868L656.931,629.8L656.829,629.732L656.727,629.665L656.624,629.599L656.521,629.534L656.418,629.469L656.314,629.405L656.21,629.341L656.106,629.278L656,629.215L655.895,629.153L655.79,629.092L655.683,629.032L655.577,628.972L655.47,628.912L655.363,628.854L655.255,628.795L655.147,628.738L655.038,628.681L654.93,628.625L654.82,628.57L654.71,628.514L654.601,628.46L654.49,628.407L654.38,628.354L654.268,628.302L654.157,628.25L654.045,628.199L653.933,628.149L653.82,628.099L653.708,628.05L653.594,628.002L653.481,627.954L653.367,627.907L653.253,627.861L653.138,627.815L653.022,627.77L652.907,627.726L652.792,627.683L652.676,627.64L652.56,627.597L652.443,627.556L652.326,627.515L652.208,627.475L652.091,627.436L651.973,627.397L651.855,627.359L651.736,627.322L651.617,627.285L651.498,627.249L651.379,627.214L651.259,627.18L651.139,627.146L651.019,627.113L650.898,627.081L650.777,627.049L650.655,627.018L650.534,626.988L650.412,626.959L650.29,626.93L650.167,626.903L650.045,626.875L649.922,626.849L649.798,626.823L649.675,626.799L649.551,626.774L649.427,626.751L649.302,626.728L649.178,626.706L649.053,626.685L648.928,626.665L648.802,626.645L648.676,626.627L648.55,626.609L648.424,626.591L648.297,626.575L648.171,626.559L648.043,626.544L647.916,626.53L647.788,626.517L647.661,626.504L647.533,626.492L647.404,626.481L647.275,626.471L647.147,626.462L647.018,626.453L646.889,626.445L646.759,626.438L646.629,626.432L646.499,626.427L646.369,626.422L646.239,626.419L646.108,626.416L645.977,626.414L645.845,626.412L645.714,626.412L645.583,626.412Z"/></g><g transform="matrix(1,0,0,1,-188.297,-685.014)"><g id="text3793"><path d="M0.927,0L0.927,-9.059L4.777,-9.059C5.745,-9.059 6.448,-8.977 6.887,-8.815C7.326,-8.652 7.677,-8.363 7.94,-7.947C8.204,-7.531 8.336,-7.055 8.336,-6.519C8.336,-5.839 8.136,-5.278 7.736,-4.835C7.337,-4.392 6.74,-4.113 5.944,-3.998C6.34,-3.767 6.666,-3.514 6.924,-3.238C7.181,-2.962 7.528,-2.472 7.965,-1.767L9.071,0L6.884,0L5.561,-1.971C5.092,-2.676 4.77,-3.12 4.597,-3.303C4.424,-3.486 4.241,-3.612 4.047,-3.68C3.854,-3.748 3.547,-3.782 3.127,-3.782L2.756,-3.782L2.756,0L0.927,0ZM2.756,-5.228L4.109,-5.228C4.987,-5.228 5.535,-5.265 5.753,-5.339C5.971,-5.413 6.142,-5.541 6.266,-5.722C6.389,-5.903 6.451,-6.13 6.451,-6.402C6.451,-6.707 6.37,-6.953 6.207,-7.14C6.044,-7.328 5.815,-7.446 5.518,-7.495C5.37,-7.516 4.925,-7.526 4.183,-7.526L2.756,-7.526L2.756,-5.228Z" style="fill-rule:nonzero;"/></g></g></g></g></svg>