<?xml version="1.0" encoding="UTF-8" standalone="no"?>
<!DOCTYPE svg PUBLIC "-//W3C//DTD SVG 1.1//EN" "http://www.w3.org/Graphics/SVG/1.1/DTD/svg11.dtd">
<svg width="100%" height="100%" viewBox="0 0 1000 215" version="1.1" xmlns="http://www.w3.org/2000/svg" xmlns:xlink="http://www.w3.org/1999/xlink" xml:space="preserve" xmlns:serif="http://www.serif.com/" style="fill-rule:evenodd;clip-rule:evenodd;stroke-linejoin:round;stroke-miterlimit:2;">
    <g transform="matrix(3.41938,0,0,3.41938,-2695.26,-1524.68)">
        <g transform="matrix(25.5281,0,0,25.5281,837.016,484.958)">
            <path d="M0.048,-0.274C0.048,-0.103 0.159,0.008 0.309,0.008C0.417,0.008 0.493,-0.05 0.525,-0.122L0.525,-0L0.595,-0L0.595,-0.74L0.525,-0.74L0.525,-0.428C0.49,-0.5 0.408,-0.554 0.31,-0.554C0.159,-0.554 0.048,-0.445 0.048,-0.274ZM0.525,-0.273C0.525,-0.137 0.434,-0.053 0.322,-0.053C0.207,-0.053 0.119,-0.136 0.119,-0.274C0.119,-0.413 0.207,-0.493 0.322,-0.493C0.434,-0.493 0.525,-0.409 0.525,-0.273Z" style="fill:white;fill-rule:nonzero;"/>
        </g>
        <g transform="matrix(25.5281,0,0,25.5281,854.885,484.958)">
            <path d="M0.313,-0.494C0.414,-0.494 0.506,-0.43 0.503,-0.303L0.119,-0.303C0.127,-0.43 0.214,-0.494 0.313,-0.494ZM0.566,-0.173L0.492,-0.173C0.472,-0.1 0.409,-0.051 0.316,-0.051C0.214,-0.051 0.125,-0.118 0.119,-0.246L0.572,-0.246C0.574,-0.265 0.574,-0.279 0.574,-0.301C0.574,-0.44 0.476,-0.554 0.316,-0.554C0.159,-0.554 0.048,-0.447 0.048,-0.273C0.048,-0.1 0.161,0.008 0.316,0.008C0.453,0.008 0.541,-0.07 0.566,-0.173Z" style="fill:white;fill-rule:nonzero;"/>
        </g>
        <g transform="matrix(25.5281,0,0,25.5281,871.402,484.958)">
            <path d="M0.149,-0.426L0.149,-0.546L0.08,-0.546L0.08,0.258L0.149,0.258L0.149,-0.12C0.181,-0.052 0.257,0.008 0.366,0.008C0.515,0.008 0.626,-0.103 0.626,-0.274C0.626,-0.445 0.515,-0.554 0.366,-0.554C0.257,-0.554 0.181,-0.495 0.149,-0.426ZM0.555,-0.274C0.555,-0.136 0.467,-0.053 0.352,-0.053C0.241,-0.053 0.149,-0.137 0.149,-0.273C0.149,-0.409 0.241,-0.493 0.352,-0.493C0.467,-0.493 0.555,-0.413 0.555,-0.274Z" style="fill:white;fill-rule:nonzero;"/>
        </g>
        <g transform="matrix(25.5281,0,0,25.5281,889.272,484.958)">
            <path d="M0.313,-0.494C0.414,-0.494 0.506,-0.43 0.503,-0.303L0.119,-0.303C0.127,-0.43 0.214,-0.494 0.313,-0.494ZM0.566,-0.173L0.492,-0.173C0.472,-0.1 0.409,-0.051 0.316,-0.051C0.214,-0.051 0.125,-0.118 0.119,-0.246L0.572,-0.246C0.574,-0.265 0.574,-0.279 0.574,-0.301C0.574,-0.44 0.476,-0.554 0.316,-0.554C0.159,-0.554 0.048,-0.447 0.048,-0.273C0.048,-0.1 0.161,0.008 0.316,0.008C0.453,0.008 0.541,-0.07 0.566,-0.173Z" style="fill:white;fill-rule:nonzero;"/>
        </g>
        <g transform="matrix(25.5281,0,0,25.5281,905.788,484.958)">
            <path d="M0.489,-0L0.558,-0L0.558,-0.32C0.558,-0.48 0.46,-0.556 0.336,-0.556C0.255,-0.556 0.185,-0.521 0.15,-0.453L0.15,-0.546L0.08,-0.546L0.08,-0L0.15,-0L0.15,-0.298C0.15,-0.431 0.221,-0.495 0.323,-0.495C0.423,-0.495 0.489,-0.433 0.489,-0.312L0.489,-0Z" style="fill:white;fill-rule:nonzero;"/>
        </g>
        <g transform="matrix(25.5281,0,0,25.5281,922.586,484.958)">
            <path d="M0.048,-0.274C0.048,-0.103 0.159,0.008 0.309,0.008C0.417,0.008 0.493,-0.05 0.525,-0.122L0.525,-0L0.595,-0L0.595,-0.74L0.525,-0.74L0.525,-0.428C0.49,-0.5 0.408,-0.554 0.31,-0.554C0.159,-0.554 0.048,-0.445 0.048,-0.274ZM0.525,-0.273C0.525,-0.137 0.434,-0.053 0.322,-0.053C0.207,-0.053 0.119,-0.136 0.119,-0.274C0.119,-0.413 0.207,-0.493 0.322,-0.493C0.434,-0.493 0.525,-0.409 0.525,-0.273Z" style="fill:white;fill-rule:nonzero;"/>
        </g>
        <g transform="matrix(25.5281,0,0,25.5281,940.455,484.958)">
            <path d="M0.313,-0.494C0.414,-0.494 0.506,-0.43 0.503,-0.303L0.119,-0.303C0.127,-0.43 0.214,-0.494 0.313,-0.494ZM0.566,-0.173L0.492,-0.173C0.472,-0.1 0.409,-0.051 0.316,-0.051C0.214,-0.051 0.125,-0.118 0.119,-0.246L0.572,-0.246C0.574,-0.265 0.574,-0.279 0.574,-0.301C0.574,-0.44 0.476,-0.554 0.316,-0.554C0.159,-0.554 0.048,-0.447 0.048,-0.273C0.048,-0.1 0.161,0.008 0.316,0.008C0.453,0.008 0.541,-0.07 0.566,-0.173Z" style="fill:white;fill-rule:nonzero;"/>
        </g>
        <g transform="matrix(25.5281,0,0,25.5281,956.972,484.958)">
            <path d="M0.489,-0L0.558,-0L0.558,-0.32C0.558,-0.48 0.46,-0.556 0.336,-0.556C0.255,-0.556 0.185,-0.521 0.15,-0.453L0.15,-0.546L0.08,-0.546L0.08,-0L0.15,-0L0.15,-0.298C0.15,-0.431 0.221,-0.495 0.323,-0.495C0.423,-0.495 0.489,-0.433 0.489,-0.312L0.489,-0Z" style="fill:white;fill-rule:nonzero;"/>
        </g>
        <g transform="matrix(25.5281,0,0,25.5281,973.77,484.958)">
            <path d="M0.048,-0.273C0.048,-0.1 0.159,0.008 0.313,0.008C0.45,0.008 0.539,-0.069 0.564,-0.178L0.489,-0.178C0.47,-0.098 0.405,-0.051 0.313,-0.051C0.206,-0.051 0.119,-0.125 0.119,-0.273C0.119,-0.421 0.206,-0.494 0.313,-0.494C0.405,-0.494 0.471,-0.446 0.489,-0.368L0.564,-0.368C0.539,-0.481 0.45,-0.554 0.313,-0.554C0.159,-0.554 0.048,-0.446 0.048,-0.273Z" style="fill:white;fill-rule:nonzero;"/>
        </g>
        <g transform="matrix(25.5281,0,0,25.5281,990.057,484.958)">
            <path d="M0.278,-0.08L0.092,-0.546L0.015,-0.546L0.239,-0.003L0.133,0.257L0.206,0.257L0.53,-0.546L0.458,-0.546L0.278,-0.08Z" style="fill:white;fill-rule:nonzero;"/>
        </g>
        <g transform="matrix(25.5281,0,0,25.5281,1012.24,484.958)">
            <path d="M0.093,-0.153C0.093,-0.041 0.154,-0 0.252,-0L0.342,-0L0.342,-0.095L0.272,-0.095C0.224,-0.095 0.208,-0.112 0.208,-0.153L0.208,-0.458L0.342,-0.458L0.342,-0.551L0.208,-0.551L0.208,-0.688L0.093,-0.688L0.093,-0.551L0.028,-0.551L0.028,-0.458L0.093,-0.458L0.093,-0.153Z" style="fill:rgb(255,0,207);fill-rule:nonzero;"/>
        </g>
        <g transform="matrix(25.5281,0,0,25.5281,1022.38,484.958)">
            <path d="M0.189,-0.29C0.189,-0.407 0.241,-0.442 0.325,-0.442L0.354,-0.442L0.354,-0.56C0.276,-0.56 0.221,-0.526 0.189,-0.471L0.189,-0.551L0.075,-0.551L0.075,-0L0.189,-0L0.189,-0.29Z" style="fill:rgb(255,0,207);fill-rule:nonzero;"/>
        </g>
        <g transform="matrix(25.5281,0,0,25.5281,1032.82,484.958)">
            <path d="M0.037,-0.278C0.037,-0.108 0.152,0.009 0.295,0.009C0.387,0.009 0.453,-0.035 0.488,-0.082L0.488,-0L0.603,-0L0.603,-0.551L0.488,-0.551L0.488,-0.471C0.454,-0.516 0.39,-0.56 0.297,-0.56C0.152,-0.56 0.037,-0.448 0.037,-0.278ZM0.488,-0.276C0.488,-0.157 0.407,-0.09 0.321,-0.09C0.236,-0.09 0.154,-0.159 0.154,-0.278C0.154,-0.397 0.236,-0.461 0.321,-0.461C0.407,-0.461 0.488,-0.394 0.488,-0.276Z" style="fill:rgb(255,0,207);fill-rule:nonzero;"/>
        </g>
        <g transform="matrix(25.5281,0,0,25.5281,1050.76,484.958)">
            <path d="M0.037,-0.276C0.037,-0.103 0.149,0.009 0.307,0.009C0.442,0.009 0.53,-0.066 0.561,-0.174L0.438,-0.174C0.417,-0.117 0.375,-0.087 0.307,-0.087C0.215,-0.087 0.154,-0.155 0.154,-0.276C0.154,-0.396 0.215,-0.464 0.307,-0.464C0.375,-0.464 0.419,-0.43 0.438,-0.377L0.561,-0.377C0.53,-0.493 0.442,-0.56 0.307,-0.56C0.149,-0.56 0.037,-0.448 0.037,-0.276Z" style="fill:rgb(255,0,207);fill-rule:nonzero;"/>
        </g>
        <g transform="matrix(25.5281,0,0,25.5281,1066.72,484.958)">
            <path d="M0.075,-0L0.189,-0L0.189,-0.237L0.393,-0L0.547,-0L0.293,-0.275L0.547,-0.551L0.389,-0.551L0.189,-0.31L0.189,-0.74L0.075,-0.74L0.075,-0Z" style="fill:rgb(255,0,207);fill-rule:nonzero;"/>
        </g>
    </g>
    <g id="Symbol">
        <g transform="matrix(3.41938,0,0,3.41938,62.8551,21.9764)">
            <path d="M0,7.701C0,10.047 -1.909,11.955 -4.254,11.955L-11.955,11.955C-14.3,11.955 -16.209,10.047 -16.209,7.701L-16.209,0.001C-16.209,-2.345 -14.3,-4.253 -11.955,-4.253L-4.254,-4.253C-1.909,-4.253 0,-2.345 0,0.001L0,7.701ZM-3.895,-6.427L-12.314,-6.427C-15.665,-6.427 -18.382,-3.71 -18.382,-0.359L-18.382,8.061C-18.382,11.412 -15.665,14.128 -12.314,14.128L-3.895,14.128C-0.543,14.128 2.173,11.412 2.173,8.061L2.173,-0.359C2.173,-3.71 -0.543,-6.427 -3.895,-6.427" style="fill:rgb(255,0,207);fill-rule:nonzero;"/>
        </g>
        <g transform="matrix(3.41938,0,0,3.41938,128.299,95.836)">
            <path d="M0,7.701C0,10.047 -1.909,11.955 -4.254,11.955L-11.955,11.955C-14.3,11.955 -16.209,10.047 -16.209,7.701L-16.209,0.001C-16.209,-2.345 -14.3,-4.253 -11.955,-4.253L-4.254,-4.253C-1.909,-4.253 0,-2.345 0,0.001L0,7.701ZM-3.895,-6.427L-12.314,-6.427C-15.665,-6.427 -18.382,-3.71 -18.382,-0.359L-18.382,8.061C-18.382,11.412 -15.665,14.128 -12.314,14.128L-3.895,14.128C-0.543,14.128 2.173,11.412 2.173,8.061L2.173,-0.359C2.173,-3.71 -0.543,-6.427 -3.895,-6.427" style="fill:rgb(255,0,207);fill-rule:nonzero;"/>
        </g>
        <g transform="matrix(3.41938,0,0,3.41938,62.8551,165.998)">
            <path d="M0,7.701C0,10.047 -1.909,11.955 -4.254,11.955L-11.955,11.955C-14.3,11.955 -16.209,10.047 -16.209,7.701L-16.209,0.001C-16.209,-2.345 -14.3,-4.253 -11.955,-4.253L-4.254,-4.253C-1.909,-4.253 0,-2.345 0,0.001L0,7.701ZM-3.895,-6.427L-12.314,-6.427C-15.665,-6.427 -18.382,-3.71 -18.382,-0.359L-18.382,8.061C-18.382,11.412 -15.665,14.128 -12.314,14.128L-3.895,14.128C-0.543,14.128 2.173,11.412 2.173,8.061L2.173,-0.359C2.173,-3.71 -0.543,-6.427 -3.895,-6.427" style="fill:rgb(255,0,207);fill-rule:nonzero;"/>
        </g>
    </g>
</svg>
