<?xml version="1.0" encoding="UTF-8" standalone="no"?>
<!DOCTYPE svg PUBLIC "-//W3C//DTD SVG 1.1//EN" "http://www.w3.org/Graphics/SVG/1.1/DTD/svg11.dtd">
<svg width="100%" height="100%" viewBox="0 0 2800 500" version="1.1" xmlns="http://www.w3.org/2000/svg" xmlns:xlink="http://www.w3.org/1999/xlink" xml:space="preserve" xmlns:serif="http://www.serif.com/" style="fill-rule:evenodd;clip-rule:evenodd;stroke-linejoin:round;stroke-miterlimit:2;">
    <g id="White---Blue-Text" serif:id="White + Blue Text" transform="matrix(1,0,0,1,-1077.84,-81.551)">
        <g transform="matrix(293.333,0,0,293.333,1484.03,421.025)">
            <path d="M0.269,0.01C0.197,0.01 0.144,-0.013 0.11,-0.061C0.075,-0.108 0.057,-0.165 0.055,-0.232L0.054,-0.26L0.055,-0.288C0.057,-0.355 0.075,-0.413 0.11,-0.46C0.144,-0.507 0.197,-0.53 0.269,-0.53C0.342,-0.53 0.398,-0.504 0.437,-0.451L0.437,-0.688C0.437,-0.695 0.439,-0.7 0.443,-0.704C0.447,-0.708 0.452,-0.71 0.459,-0.71L0.476,-0.71C0.483,-0.71 0.488,-0.708 0.492,-0.704C0.496,-0.7 0.498,-0.695 0.498,-0.688L0.498,-0.022C0.498,-0.015 0.496,-0.01 0.492,-0.006C0.488,-0.002 0.483,0 0.476,0L0.459,0C0.452,0 0.447,-0.002 0.443,-0.006C0.439,-0.01 0.437,-0.015 0.437,-0.022L0.437,-0.069C0.398,-0.016 0.342,0.01 0.269,0.01ZM0.275,-0.048C0.328,-0.048 0.367,-0.066 0.394,-0.101C0.421,-0.135 0.435,-0.177 0.437,-0.224C0.438,-0.231 0.438,-0.244 0.438,-0.263C0.438,-0.282 0.438,-0.295 0.437,-0.302C0.436,-0.331 0.43,-0.358 0.418,-0.384C0.406,-0.409 0.388,-0.43 0.364,-0.447C0.34,-0.464 0.31,-0.472 0.275,-0.472C0.221,-0.472 0.182,-0.455 0.157,-0.421C0.132,-0.386 0.118,-0.342 0.116,-0.288L0.115,-0.26C0.115,-0.198 0.127,-0.147 0.151,-0.108C0.175,-0.068 0.216,-0.048 0.275,-0.048Z" style="fill:#fff;fill-rule:nonzero;"/>
        </g>
        <g transform="matrix(293.333,0,0,293.333,1654.16,421.025)">
            <path d="M0.274,0.01C0.211,0.01 0.16,-0.011 0.121,-0.053C0.082,-0.094 0.06,-0.15 0.055,-0.22L0.054,-0.26L0.055,-0.3C0.06,-0.369 0.082,-0.425 0.121,-0.467C0.159,-0.509 0.21,-0.53 0.274,-0.53C0.343,-0.53 0.397,-0.507 0.437,-0.461C0.475,-0.415 0.495,-0.352 0.495,-0.272L0.495,-0.257C0.495,-0.25 0.493,-0.245 0.489,-0.241C0.484,-0.237 0.479,-0.235 0.472,-0.235L0.116,-0.235L0.116,-0.225C0.117,-0.194 0.125,-0.165 0.138,-0.138C0.151,-0.111 0.169,-0.089 0.192,-0.073C0.215,-0.056 0.243,-0.048 0.274,-0.048C0.311,-0.048 0.341,-0.055 0.364,-0.07C0.387,-0.084 0.403,-0.098 0.413,-0.113C0.419,-0.121 0.424,-0.126 0.427,-0.128C0.43,-0.13 0.435,-0.131 0.443,-0.131L0.459,-0.131C0.465,-0.131 0.47,-0.129 0.474,-0.126C0.478,-0.123 0.48,-0.118 0.48,-0.113C0.48,-0.099 0.471,-0.082 0.454,-0.063C0.436,-0.043 0.411,-0.026 0.38,-0.012C0.349,0.003 0.313,0.01 0.274,0.01ZM0.434,-0.291L0.434,-0.295C0.434,-0.346 0.42,-0.389 0.391,-0.422C0.362,-0.455 0.323,-0.472 0.274,-0.472C0.225,-0.472 0.187,-0.455 0.159,-0.422C0.13,-0.389 0.116,-0.346 0.116,-0.295L0.116,-0.291L0.434,-0.291Z" style="fill:#fff;fill-rule:nonzero;"/>
        </g>
        <g transform="matrix(293.333,0,0,293.333,1814.32,421.025)">
            <path d="M0.104,0.19C0.097,0.19 0.092,0.188 0.088,0.184C0.084,0.18 0.082,0.175 0.082,0.168L0.082,-0.498C0.082,-0.505 0.084,-0.51 0.088,-0.514C0.092,-0.518 0.097,-0.52 0.104,-0.52L0.121,-0.52C0.128,-0.52 0.133,-0.518 0.137,-0.514C0.141,-0.51 0.143,-0.505 0.143,-0.498L0.143,-0.451C0.182,-0.504 0.238,-0.53 0.311,-0.53C0.383,-0.53 0.436,-0.507 0.471,-0.462C0.505,-0.416 0.523,-0.36 0.525,-0.293C0.526,-0.286 0.526,-0.275 0.526,-0.26C0.526,-0.245 0.526,-0.234 0.525,-0.227C0.523,-0.16 0.505,-0.104 0.471,-0.059C0.436,-0.013 0.383,0.01 0.311,0.01C0.238,0.01 0.182,-0.016 0.143,-0.069L0.143,0.168C0.143,0.175 0.141,0.18 0.137,0.184C0.133,0.188 0.128,0.19 0.121,0.19L0.104,0.19ZM0.305,-0.048C0.359,-0.048 0.399,-0.065 0.424,-0.1C0.448,-0.134 0.462,-0.178 0.464,-0.232C0.465,-0.239 0.465,-0.248 0.465,-0.26C0.465,-0.322 0.453,-0.373 0.429,-0.413C0.405,-0.452 0.364,-0.472 0.305,-0.472C0.252,-0.472 0.213,-0.455 0.186,-0.42C0.159,-0.385 0.145,-0.343 0.143,-0.296L0.142,-0.257L0.143,-0.218C0.144,-0.189 0.15,-0.162 0.162,-0.137C0.174,-0.111 0.192,-0.09 0.216,-0.073C0.24,-0.056 0.27,-0.048 0.305,-0.048Z" style="fill:#fff;fill-rule:nonzero;"/>
        </g>
        <g transform="matrix(293.333,0,0,293.333,1984.75,421.025)">
            <path d="M0.274,0.01C0.211,0.01 0.16,-0.011 0.121,-0.053C0.082,-0.094 0.06,-0.15 0.055,-0.22L0.054,-0.26L0.055,-0.3C0.06,-0.369 0.082,-0.425 0.121,-0.467C0.159,-0.509 0.21,-0.53 0.274,-0.53C0.343,-0.53 0.397,-0.507 0.437,-0.461C0.475,-0.415 0.495,-0.352 0.495,-0.272L0.495,-0.257C0.495,-0.25 0.493,-0.245 0.489,-0.241C0.484,-0.237 0.479,-0.235 0.472,-0.235L0.116,-0.235L0.116,-0.225C0.117,-0.194 0.125,-0.165 0.138,-0.138C0.151,-0.111 0.169,-0.089 0.192,-0.073C0.215,-0.056 0.243,-0.048 0.274,-0.048C0.311,-0.048 0.341,-0.055 0.364,-0.07C0.387,-0.084 0.403,-0.098 0.413,-0.113C0.419,-0.121 0.424,-0.126 0.427,-0.128C0.43,-0.13 0.435,-0.131 0.443,-0.131L0.459,-0.131C0.465,-0.131 0.47,-0.129 0.474,-0.126C0.478,-0.123 0.48,-0.118 0.48,-0.113C0.48,-0.099 0.471,-0.082 0.454,-0.063C0.436,-0.043 0.411,-0.026 0.38,-0.012C0.349,0.003 0.313,0.01 0.274,0.01ZM0.434,-0.291L0.434,-0.295C0.434,-0.346 0.42,-0.389 0.391,-0.422C0.362,-0.455 0.323,-0.472 0.274,-0.472C0.225,-0.472 0.187,-0.455 0.159,-0.422C0.13,-0.389 0.116,-0.346 0.116,-0.295L0.116,-0.291L0.434,-0.291Z" style="fill:#fff;fill-rule:nonzero;"/>
        </g>
        <g transform="matrix(293.333,0,0,293.333,2144.91,421.025)">
            <path d="M0.103,0C0.096,0 0.091,-0.002 0.087,-0.006C0.083,-0.01 0.081,-0.015 0.081,-0.022L0.081,-0.498C0.081,-0.505 0.083,-0.51 0.087,-0.514C0.091,-0.518 0.096,-0.52 0.103,-0.52L0.12,-0.52C0.127,-0.52 0.132,-0.518 0.136,-0.514C0.14,-0.51 0.142,-0.505 0.142,-0.498L0.142,-0.451C0.162,-0.477 0.185,-0.497 0.211,-0.51C0.236,-0.523 0.269,-0.53 0.31,-0.53C0.375,-0.53 0.426,-0.509 0.461,-0.468C0.496,-0.426 0.514,-0.372 0.514,-0.306L0.514,-0.022C0.514,-0.015 0.512,-0.01 0.508,-0.006C0.504,-0.002 0.499,0 0.492,0L0.475,0C0.468,0 0.463,-0.002 0.459,-0.006C0.455,-0.01 0.453,-0.015 0.453,-0.022L0.453,-0.301C0.453,-0.355 0.44,-0.397 0.414,-0.427C0.387,-0.457 0.349,-0.472 0.3,-0.472C0.252,-0.472 0.214,-0.457 0.185,-0.427C0.156,-0.396 0.142,-0.354 0.142,-0.301L0.142,-0.022C0.142,-0.015 0.14,-0.01 0.136,-0.006C0.132,-0.002 0.127,0 0.12,0L0.103,0Z" style="fill:#fff;fill-rule:nonzero;"/>
        </g>
        <g transform="matrix(293.333,0,0,293.333,2317.98,421.025)">
            <path d="M0.269,0.01C0.197,0.01 0.144,-0.013 0.11,-0.061C0.075,-0.108 0.057,-0.165 0.055,-0.232L0.054,-0.26L0.055,-0.288C0.057,-0.355 0.075,-0.413 0.11,-0.46C0.144,-0.507 0.197,-0.53 0.269,-0.53C0.342,-0.53 0.398,-0.504 0.437,-0.451L0.437,-0.688C0.437,-0.695 0.439,-0.7 0.443,-0.704C0.447,-0.708 0.452,-0.71 0.459,-0.71L0.476,-0.71C0.483,-0.71 0.488,-0.708 0.492,-0.704C0.496,-0.7 0.498,-0.695 0.498,-0.688L0.498,-0.022C0.498,-0.015 0.496,-0.01 0.492,-0.006C0.488,-0.002 0.483,0 0.476,0L0.459,0C0.452,0 0.447,-0.002 0.443,-0.006C0.439,-0.01 0.437,-0.015 0.437,-0.022L0.437,-0.069C0.398,-0.016 0.342,0.01 0.269,0.01ZM0.275,-0.048C0.328,-0.048 0.367,-0.066 0.394,-0.101C0.421,-0.135 0.435,-0.177 0.437,-0.224C0.438,-0.231 0.438,-0.244 0.438,-0.263C0.438,-0.282 0.438,-0.295 0.437,-0.302C0.436,-0.331 0.43,-0.358 0.418,-0.384C0.406,-0.409 0.388,-0.43 0.364,-0.447C0.34,-0.464 0.31,-0.472 0.275,-0.472C0.221,-0.472 0.182,-0.455 0.157,-0.421C0.132,-0.386 0.118,-0.342 0.116,-0.288L0.115,-0.26C0.115,-0.198 0.127,-0.147 0.151,-0.108C0.175,-0.068 0.216,-0.048 0.275,-0.048Z" style="fill:#fff;fill-rule:nonzero;"/>
        </g>
        <g transform="matrix(293.333,0,0,293.333,2488.11,421.025)">
            <path d="M0.274,0.01C0.211,0.01 0.16,-0.011 0.121,-0.053C0.082,-0.094 0.06,-0.15 0.055,-0.22L0.054,-0.26L0.055,-0.3C0.06,-0.369 0.082,-0.425 0.121,-0.467C0.159,-0.509 0.21,-0.53 0.274,-0.53C0.343,-0.53 0.397,-0.507 0.437,-0.461C0.475,-0.415 0.495,-0.352 0.495,-0.272L0.495,-0.257C0.495,-0.25 0.493,-0.245 0.489,-0.241C0.484,-0.237 0.479,-0.235 0.472,-0.235L0.116,-0.235L0.116,-0.225C0.117,-0.194 0.125,-0.165 0.138,-0.138C0.151,-0.111 0.169,-0.089 0.192,-0.073C0.215,-0.056 0.243,-0.048 0.274,-0.048C0.311,-0.048 0.341,-0.055 0.364,-0.07C0.387,-0.084 0.403,-0.098 0.413,-0.113C0.419,-0.121 0.424,-0.126 0.427,-0.128C0.43,-0.13 0.435,-0.131 0.443,-0.131L0.459,-0.131C0.465,-0.131 0.47,-0.129 0.474,-0.126C0.478,-0.123 0.48,-0.118 0.48,-0.113C0.48,-0.099 0.471,-0.082 0.454,-0.063C0.436,-0.043 0.411,-0.026 0.38,-0.012C0.349,0.003 0.313,0.01 0.274,0.01ZM0.434,-0.291L0.434,-0.295C0.434,-0.346 0.42,-0.389 0.391,-0.422C0.362,-0.455 0.323,-0.472 0.274,-0.472C0.225,-0.472 0.187,-0.455 0.159,-0.422C0.13,-0.389 0.116,-0.346 0.116,-0.295L0.116,-0.291L0.434,-0.291Z" style="fill:#fff;fill-rule:nonzero;"/>
        </g>
        <g transform="matrix(293.333,0,0,293.333,2648.27,421.025)">
            <path d="M0.103,0C0.096,0 0.091,-0.002 0.087,-0.006C0.083,-0.01 0.081,-0.015 0.081,-0.022L0.081,-0.498C0.081,-0.505 0.083,-0.51 0.087,-0.514C0.091,-0.518 0.096,-0.52 0.103,-0.52L0.12,-0.52C0.127,-0.52 0.132,-0.518 0.136,-0.514C0.14,-0.51 0.142,-0.505 0.142,-0.498L0.142,-0.451C0.162,-0.477 0.185,-0.497 0.211,-0.51C0.236,-0.523 0.269,-0.53 0.31,-0.53C0.375,-0.53 0.426,-0.509 0.461,-0.468C0.496,-0.426 0.514,-0.372 0.514,-0.306L0.514,-0.022C0.514,-0.015 0.512,-0.01 0.508,-0.006C0.504,-0.002 0.499,0 0.492,0L0.475,0C0.468,0 0.463,-0.002 0.459,-0.006C0.455,-0.01 0.453,-0.015 0.453,-0.022L0.453,-0.301C0.453,-0.355 0.44,-0.397 0.414,-0.427C0.387,-0.457 0.349,-0.472 0.3,-0.472C0.252,-0.472 0.214,-0.457 0.185,-0.427C0.156,-0.396 0.142,-0.354 0.142,-0.301L0.142,-0.022C0.142,-0.015 0.14,-0.01 0.136,-0.006C0.132,-0.002 0.127,0 0.12,0L0.103,0Z" style="fill:#fff;fill-rule:nonzero;"/>
        </g>
        <g transform="matrix(293.333,0,0,293.333,2821.34,421.025)">
            <path d="M0.278,0.01C0.209,0.01 0.155,-0.01 0.117,-0.051C0.079,-0.091 0.059,-0.147 0.057,-0.22L0.056,-0.26L0.057,-0.3C0.059,-0.373 0.079,-0.429 0.117,-0.47C0.155,-0.51 0.209,-0.53 0.278,-0.53C0.322,-0.53 0.36,-0.522 0.391,-0.507C0.422,-0.491 0.445,-0.471 0.46,-0.447C0.475,-0.422 0.484,-0.397 0.485,-0.371C0.486,-0.365 0.484,-0.36 0.479,-0.356C0.474,-0.351 0.469,-0.349 0.463,-0.349L0.449,-0.349C0.442,-0.349 0.438,-0.351 0.435,-0.354C0.432,-0.357 0.428,-0.362 0.425,-0.37C0.412,-0.407 0.393,-0.433 0.369,-0.449C0.345,-0.464 0.315,-0.472 0.278,-0.472C0.23,-0.472 0.192,-0.458 0.164,-0.429C0.135,-0.4 0.12,-0.355 0.118,-0.295L0.117,-0.26L0.118,-0.225C0.12,-0.165 0.135,-0.121 0.164,-0.092C0.192,-0.063 0.23,-0.048 0.278,-0.048C0.315,-0.048 0.345,-0.056 0.369,-0.072C0.393,-0.087 0.412,-0.113 0.425,-0.15C0.428,-0.158 0.432,-0.164 0.435,-0.167C0.438,-0.17 0.442,-0.171 0.449,-0.171L0.463,-0.171C0.469,-0.171 0.474,-0.169 0.479,-0.165C0.484,-0.16 0.486,-0.155 0.485,-0.149C0.484,-0.123 0.475,-0.098 0.46,-0.074C0.445,-0.049 0.422,-0.029 0.391,-0.014C0.36,0.002 0.322,0.01 0.278,0.01Z" style="fill:#fff;fill-rule:nonzero;"/>
        </g>
        <g transform="matrix(293.333,0,0,293.333,2974.46,421.025)">
            <path d="M0.169,0.19C0.164,0.19 0.159,0.188 0.155,0.184C0.151,0.18 0.149,0.175 0.149,0.17C0.149,0.167 0.151,0.16 0.155,0.15L0.232,-0.03L0.041,-0.48C0.037,-0.49 0.035,-0.497 0.035,-0.5C0.035,-0.505 0.037,-0.51 0.041,-0.514C0.045,-0.518 0.05,-0.52 0.055,-0.52L0.076,-0.52C0.087,-0.52 0.094,-0.515 0.099,-0.505L0.267,-0.109L0.439,-0.505C0.444,-0.515 0.452,-0.52 0.462,-0.52L0.482,-0.52C0.487,-0.52 0.492,-0.518 0.496,-0.514C0.5,-0.51 0.502,-0.505 0.502,-0.5C0.502,-0.497 0.5,-0.49 0.496,-0.48L0.212,0.175C0.207,0.185 0.2,0.19 0.189,0.19L0.169,0.19Z" style="fill:#fff;fill-rule:nonzero;"/>
        </g>
        <g transform="matrix(293.333,0,0,293.333,3191.82,421.025)">
            <path d="M0.256,0C0.207,0 0.172,-0.015 0.151,-0.045C0.13,-0.074 0.12,-0.115 0.12,-0.167L0.12,-0.462L0.042,-0.462C0.035,-0.462 0.03,-0.464 0.026,-0.468C0.022,-0.472 0.02,-0.477 0.02,-0.484L0.02,-0.498C0.02,-0.505 0.022,-0.51 0.026,-0.514C0.03,-0.518 0.035,-0.52 0.042,-0.52L0.12,-0.52L0.12,-0.688C0.12,-0.695 0.122,-0.7 0.126,-0.704C0.13,-0.708 0.135,-0.71 0.142,-0.71L0.159,-0.71C0.166,-0.71 0.171,-0.708 0.175,-0.704C0.179,-0.7 0.181,-0.695 0.181,-0.688L0.181,-0.52L0.305,-0.52C0.312,-0.52 0.317,-0.518 0.321,-0.514C0.325,-0.51 0.327,-0.505 0.327,-0.498L0.327,-0.484C0.327,-0.477 0.325,-0.472 0.321,-0.468C0.317,-0.464 0.312,-0.462 0.305,-0.462L0.181,-0.462L0.181,-0.171C0.181,-0.134 0.187,-0.106 0.2,-0.087C0.212,-0.068 0.232,-0.058 0.261,-0.058L0.315,-0.058C0.322,-0.058 0.327,-0.056 0.331,-0.052C0.335,-0.048 0.337,-0.043 0.337,-0.036L0.337,-0.022C0.337,-0.015 0.335,-0.01 0.331,-0.006C0.327,-0.002 0.322,0 0.315,0L0.256,0Z" style="fill:#227dc1;fill-rule:nonzero;"/>
        </g>
        <g transform="matrix(293.333,0,0,293.333,3297.12,421.025)">
            <path d="M0.103,0C0.096,0 0.091,-0.002 0.087,-0.006C0.083,-0.01 0.081,-0.015 0.081,-0.022L0.081,-0.497C0.081,-0.504 0.083,-0.509 0.087,-0.514C0.091,-0.518 0.096,-0.52 0.103,-0.52L0.119,-0.52C0.126,-0.52 0.131,-0.518 0.136,-0.514C0.14,-0.509 0.142,-0.504 0.142,-0.497L0.142,-0.451C0.166,-0.497 0.211,-0.52 0.278,-0.52L0.315,-0.52C0.322,-0.52 0.327,-0.518 0.331,-0.514C0.335,-0.51 0.337,-0.505 0.337,-0.498L0.337,-0.484C0.337,-0.477 0.335,-0.472 0.331,-0.468C0.327,-0.464 0.322,-0.462 0.315,-0.462L0.272,-0.462C0.232,-0.462 0.2,-0.45 0.177,-0.427C0.154,-0.404 0.142,-0.372 0.142,-0.332L0.142,-0.022C0.142,-0.015 0.14,-0.01 0.136,-0.006C0.131,-0.002 0.126,0 0.119,0L0.103,0Z" style="fill:#227dc1;fill-rule:nonzero;"/>
        </g>
        <g transform="matrix(293.333,0,0,293.333,3396.86,421.025)">
            <path d="M0.221,0.01C0.189,0.01 0.159,0.003 0.132,-0.01C0.105,-0.023 0.083,-0.041 0.067,-0.064C0.05,-0.087 0.042,-0.112 0.042,-0.139C0.042,-0.183 0.06,-0.219 0.096,-0.247C0.131,-0.275 0.179,-0.293 0.24,-0.301L0.398,-0.323L0.398,-0.358C0.398,-0.395 0.387,-0.423 0.365,-0.443C0.342,-0.462 0.308,-0.472 0.262,-0.472C0.228,-0.472 0.2,-0.465 0.179,-0.452C0.157,-0.439 0.143,-0.423 0.137,-0.404C0.134,-0.396 0.131,-0.391 0.128,-0.388C0.124,-0.385 0.119,-0.383 0.113,-0.383L0.099,-0.383C0.093,-0.383 0.088,-0.385 0.084,-0.39C0.079,-0.394 0.077,-0.399 0.077,-0.405C0.077,-0.42 0.084,-0.437 0.097,-0.457C0.11,-0.476 0.131,-0.493 0.159,-0.508C0.187,-0.523 0.221,-0.53 0.262,-0.53C0.333,-0.53 0.384,-0.513 0.414,-0.479C0.444,-0.445 0.459,-0.404 0.459,-0.355L0.459,-0.022C0.459,-0.015 0.457,-0.01 0.453,-0.006C0.449,-0.002 0.444,0 0.437,0L0.42,0C0.413,0 0.408,-0.002 0.404,-0.006C0.4,-0.01 0.398,-0.015 0.398,-0.022L0.398,-0.069C0.383,-0.047 0.362,-0.028 0.334,-0.013C0.305,0.002 0.268,0.01 0.221,0.01ZM0.231,-0.048C0.28,-0.048 0.32,-0.064 0.351,-0.096C0.382,-0.128 0.398,-0.174 0.398,-0.234L0.398,-0.268L0.269,-0.25C0.214,-0.243 0.173,-0.23 0.145,-0.212C0.117,-0.194 0.103,-0.171 0.103,-0.144C0.103,-0.113 0.116,-0.09 0.142,-0.073C0.167,-0.056 0.197,-0.048 0.231,-0.048Z" style="fill:#227dc1;fill-rule:nonzero;"/>
        </g>
        <g transform="matrix(293.333,0,0,293.333,3554.08,421.025)">
            <path d="M0.278,0.01C0.209,0.01 0.155,-0.01 0.117,-0.051C0.079,-0.091 0.059,-0.147 0.057,-0.22L0.056,-0.26L0.057,-0.3C0.059,-0.373 0.079,-0.429 0.117,-0.47C0.155,-0.51 0.209,-0.53 0.278,-0.53C0.322,-0.53 0.36,-0.522 0.391,-0.507C0.422,-0.491 0.445,-0.471 0.46,-0.447C0.475,-0.422 0.484,-0.397 0.485,-0.371C0.486,-0.365 0.484,-0.36 0.479,-0.356C0.474,-0.351 0.469,-0.349 0.463,-0.349L0.449,-0.349C0.442,-0.349 0.438,-0.351 0.435,-0.354C0.432,-0.357 0.428,-0.362 0.425,-0.37C0.412,-0.407 0.393,-0.433 0.369,-0.449C0.345,-0.464 0.315,-0.472 0.278,-0.472C0.23,-0.472 0.192,-0.458 0.164,-0.429C0.135,-0.4 0.12,-0.355 0.118,-0.295L0.117,-0.26L0.118,-0.225C0.12,-0.165 0.135,-0.121 0.164,-0.092C0.192,-0.063 0.23,-0.048 0.278,-0.048C0.315,-0.048 0.345,-0.056 0.369,-0.072C0.393,-0.087 0.412,-0.113 0.425,-0.15C0.428,-0.158 0.432,-0.164 0.435,-0.167C0.438,-0.17 0.442,-0.171 0.449,-0.171L0.463,-0.171C0.469,-0.171 0.474,-0.169 0.479,-0.165C0.484,-0.16 0.486,-0.155 0.485,-0.149C0.484,-0.123 0.475,-0.098 0.46,-0.074C0.445,-0.049 0.422,-0.029 0.391,-0.014C0.36,0.002 0.322,0.01 0.278,0.01Z" style="fill:#227dc1;fill-rule:nonzero;"/>
        </g>
        <g transform="matrix(293.333,0,0,293.333,3711.31,421.025)">
            <path d="M0.104,0C0.097,0 0.092,-0.002 0.088,-0.006C0.084,-0.01 0.082,-0.015 0.082,-0.022L0.082,-0.688C0.082,-0.695 0.084,-0.7 0.088,-0.704C0.092,-0.708 0.097,-0.71 0.104,-0.71L0.121,-0.71C0.128,-0.71 0.133,-0.708 0.137,-0.704C0.141,-0.7 0.143,-0.695 0.143,-0.688L0.143,-0.334L0.366,-0.503C0.377,-0.511 0.384,-0.516 0.388,-0.518C0.392,-0.519 0.399,-0.52 0.408,-0.52L0.427,-0.52C0.433,-0.52 0.438,-0.518 0.442,-0.515C0.445,-0.511 0.447,-0.506 0.447,-0.5C0.447,-0.493 0.443,-0.486 0.434,-0.48L0.181,-0.288L0.459,-0.04C0.468,-0.032 0.472,-0.025 0.472,-0.02C0.472,-0.014 0.47,-0.009 0.467,-0.006C0.463,-0.002 0.458,0 0.452,0L0.436,0C0.426,0 0.419,-0.001 0.414,-0.003C0.409,-0.004 0.403,-0.009 0.394,-0.017L0.143,-0.24L0.143,-0.022C0.143,-0.015 0.141,-0.01 0.137,-0.006C0.133,-0.002 0.128,0 0.121,0L0.104,0Z" style="fill:#227dc1;fill-rule:nonzero;"/>
        </g>
    </g>
    <g id="Logo" transform="matrix(1,0,0,1,-14.3433,-84.7102)">
        <path d="M53.25,110.42C82.09,110.43 110.94,110.41 139.78,110.43C139.82,130.3 139.78,150.17 139.79,170.04C139.84,175.5 141.1,181.12 144.4,185.56C147.2,189.57 151.45,192.33 155.89,194.21C156.85,194.52 157.8,194.85 158.76,195.2C161.48,195.72 164.16,196.6 166.96,196.53C186.66,196.52 206.36,196.51 226.05,196.53C226.06,216.36 226.07,236.19 226.04,256.02C226.1,262.2 228.25,268.29 231.75,273.35C235.85,279.14 242.87,282.93 250.02,282.72C270.77,282.72 291.52,282.7 312.27,282.73C312.4,311.66 312.32,340.6 312.3,369.53C290.68,369.58 269.05,369.44 247.43,369.6C234.96,370.89 226.52,383.04 226.07,394.95C226.01,415.22 226.09,435.5 226.04,455.77C205.37,455.77 184.7,455.79 164.04,455.76C157.28,455.89 150.41,458.85 146.21,464.25C141.83,469.81 139.51,476.97 139.7,484.03C139.76,503.31 139.68,522.58 139.74,541.85C110.92,541.85 82.11,541.82 53.3,541.87C53.31,513.11 53.28,484.34 53.3,455.58C71.54,455.67 89.78,455.58 108.01,455.63C118.08,456.24 129.2,452.9 135.29,444.41C138.18,440.24 139.66,435.13 139.54,430.06C139.49,418.37 139.57,406.68 139.5,395C138.91,386.82 135.28,378.44 128.45,373.61C124.58,370.86 119.81,369.32 115.06,369.51C94.48,369.57 73.9,369.49 53.32,369.55C53.28,340.6 53.13,311.64 53.37,282.7C74.22,282.74 95.08,282.71 115.93,282.72C123.85,282.83 131.34,277.97 135.2,271.17C137.97,266.27 139.68,260.65 139.52,254.99C139.49,245 139.49,235.02 139.52,225.04C139.82,217.64 137.07,210.25 132.39,204.56C127.59,199.05 120.12,196.78 113,196.65C93.08,196.71 73.16,196.68 53.24,196.67C53.24,167.92 53.2,139.17 53.25,110.42M163.36,283.52C157.58,284.39 152,286.82 147.52,290.6C142.27,295.2 139.91,302.28 139.83,309.12C139.65,320.41 139.83,331.7 139.74,342.99C139.66,349.14 141.45,355.6 145.81,360.11C150.84,365.87 158.51,368.62 165.95,369.33C175.61,369.43 185.27,369.32 194.94,369.38C203.11,369.72 211.67,367.47 217.93,362.03C223.03,357.54 225.69,350.75 225.75,344.03C225.79,332.01 225.74,320 225.77,307.98C225.83,301.54 223.16,295.05 218.43,290.66C212.77,285.9 205.39,283.07 197.97,283.31C186.43,283.45 174.88,283.06 163.36,283.52Z" style="fill:#227dc1;fill-rule:nonzero;"/>
    </g>
</svg>
