<?xml version="1.0" encoding="UTF-8" standalone="no"?>
<!DOCTYPE svg PUBLIC "-//W3C//DTD SVG 1.1//EN" "http://www.w3.org/Graphics/SVG/1.1/DTD/svg11.dtd">
<svg width="24px" height="25px" version="1.1" xmlns="http://www.w3.org/2000/svg" xmlns:xlink="http://www.w3.org/1999/xlink" xml:space="preserve" xmlns:serif="http://www.serif.com/" style="fill-rule:evenodd;clip-rule:evenodd;stroke-linejoin:round;stroke-miterlimit:1.41421;">
    <path d="M11.59,2.334l0,-2.334c-5.871,0.863 -10.538,5.428 -11.547,11.251l2.349,0c0.954,-4.546 4.603,-8.1 9.198,-8.917Z" style="fill:#fff;fill-rule:nonzero;"/>
    <path d="M11.59,4.453l0,-2.119c-4.595,0.816 -8.244,4.371 -9.198,8.917l2.134,0c0.883,-3.395 3.62,-6.043 7.064,-6.798Z" style="fill:#bcbbbb;fill-rule:nonzero;"/>
    <path d="M18.216,10.302l-1.741,1.745c0.051,0.099 0.109,0.191 0.152,0.298c0.16,0.401 0.24,0.84 0.24,1.314l0,0.031c0,0.485 -0.08,0.923 -0.24,1.314c-0.16,0.393 -0.382,0.732 -0.665,1.021c-0.283,0.289 -0.626,0.51 -1.027,0.664c-0.403,0.154 -0.846,0.232 -1.331,0.232l-1.839,0l0,-0.154l-2.297,2.304l4.136,0c0.845,0 1.621,-0.14 2.327,-0.418c0.706,-0.279 1.315,-0.659 1.824,-1.145c0.511,-0.484 0.905,-1.055 1.183,-1.716c0.278,-0.659 0.418,-1.37 0.418,-2.134l0,-0.029c0,-0.763 -0.14,-1.472 -0.418,-2.127c-0.187,-0.439 -0.431,-0.837 -0.722,-1.2Z" style="fill:#fff;fill-rule:nonzero;"/>
    <path d="M11.765,10.397l1.839,0c0.484,0 0.928,0.08 1.331,0.24c0.401,0.16 0.744,0.384 1.028,0.672c0.207,0.212 0.371,0.466 0.512,0.738l1.741,-1.745c-0.143,-0.177 -0.293,-0.349 -0.461,-0.508c-0.509,-0.483 -1.118,-0.862 -1.823,-1.136c-0.707,-0.273 -1.482,-0.41 -2.328,-0.41l-4.22,0l0,10.823l0.084,0l2.298,-2.303l0,-6.37l-0.001,-0.001Z" style="fill:#bcbbbb;fill-rule:nonzero;"/>
    <path d="M16.063,2.421l0,2.14c1.906,0.516 3.567,1.62 4.787,3.1l1.476,-1.479c-1.594,-1.868 -3.778,-3.218 -6.263,-3.761Z" style="fill:#bcbbbb;fill-rule:nonzero;"/>
    <path d="M16.063,0.07l0,2.351c2.485,0.543 4.669,1.893 6.263,3.761l1.631,-1.635c-2.011,-2.292 -4.767,-3.914 -7.894,-4.477Zm-13.723,15.653l-2.34,0c0.504,3.283 2.171,6.178 4.562,8.265l1.629,-1.633c-1.966,-1.67 -3.361,-3.992 -3.851,-6.632Z" style="fill:#fff;fill-rule:nonzero;"/>
    <path d="M4.464,15.723l-2.124,0c0.49,2.64 1.885,4.962 3.851,6.632l1.477,-1.48c-1.579,-1.296 -2.732,-3.093 -3.204,-5.152Z" style="fill:#bcbbbb;fill-rule:nonzero;"/>
</svg>
