<?xml version="1.0" encoding="UTF-8" standalone="no"?>
<!DOCTYPE svg PUBLIC "-//W3C//DTD SVG 1.1//EN" "http://www.w3.org/Graphics/SVG/1.1/DTD/svg11.dtd">
<svg width="100%" height="100%" viewBox="0 0 300 474" version="1.1" xmlns="http://www.w3.org/2000/svg" xmlns:xlink="http://www.w3.org/1999/xlink" xml:space="preserve" xmlns:serif="http://www.serif.com/" style="fill-rule:evenodd;clip-rule:evenodd;stroke-linejoin:round;stroke-miterlimit:2;">
    <g id="Symbol">
        <g transform="matrix(7.55778,0,0,7.55778,138.927,48.5738)">
            <path d="M0,7.701C0,10.047 -1.909,11.955 -4.254,11.955L-11.955,11.955C-14.3,11.955 -16.209,10.047 -16.209,7.701L-16.209,0.001C-16.209,-2.345 -14.3,-4.253 -11.955,-4.253L-4.254,-4.253C-1.909,-4.253 0,-2.345 0,0.001L0,7.701ZM-3.895,-6.427L-12.314,-6.427C-15.665,-6.427 -18.382,-3.71 -18.382,-0.359L-18.382,8.061C-18.382,11.412 -15.665,14.128 -12.314,14.128L-3.895,14.128C-0.543,14.128 2.173,11.412 2.173,8.061L2.173,-0.359C2.173,-3.71 -0.543,-6.427 -3.895,-6.427" style="fill:rgb(255,0,207);fill-rule:nonzero;"/>
        </g>
        <g transform="matrix(7.55778,0,0,7.55778,283.577,211.824)">
            <path d="M0,7.701C0,10.047 -1.909,11.955 -4.254,11.955L-11.955,11.955C-14.3,11.955 -16.209,10.047 -16.209,7.701L-16.209,0.001C-16.209,-2.345 -14.3,-4.253 -11.955,-4.253L-4.254,-4.253C-1.909,-4.253 0,-2.345 0,0.001L0,7.701ZM-3.895,-6.427L-12.314,-6.427C-15.665,-6.427 -18.382,-3.71 -18.382,-0.359L-18.382,8.061C-18.382,11.412 -15.665,14.128 -12.314,14.128L-3.895,14.128C-0.543,14.128 2.173,11.412 2.173,8.061L2.173,-0.359C2.173,-3.71 -0.543,-6.427 -3.895,-6.427" style="fill:rgb(255,0,207);fill-rule:nonzero;"/>
        </g>
        <g transform="matrix(7.55778,0,0,7.55778,138.927,366.902)">
            <path d="M0,7.701C0,10.047 -1.909,11.955 -4.254,11.955L-11.955,11.955C-14.3,11.955 -16.209,10.047 -16.209,7.701L-16.209,0.001C-16.209,-2.345 -14.3,-4.253 -11.955,-4.253L-4.254,-4.253C-1.909,-4.253 0,-2.345 0,0.001L0,7.701ZM-3.895,-6.427L-12.314,-6.427C-15.665,-6.427 -18.382,-3.71 -18.382,-0.359L-18.382,8.061C-18.382,11.412 -15.665,14.128 -12.314,14.128L-3.895,14.128C-0.543,14.128 2.173,11.412 2.173,8.061L2.173,-0.359C2.173,-3.71 -0.543,-6.427 -3.895,-6.427" style="fill:rgb(255,0,207);fill-rule:nonzero;"/>
        </g>
    </g>
</svg>
